<mxfile host="app.diagrams.net" modified="2024-07-15T12:50:23.746Z" agent="Mozilla/5.0 (Windows NT 10.0; Win64; x64) AppleWebKit/537.36 (KHTML, like Gecko) Chrome/126.0.0.0 Safari/537.36 Edg/126.0.0.0" etag="PH3KUbDJb1kZRTlg_gPr" version="24.6.5" type="github" pages="6">
  <diagram id="C5RBs43oDa-KdzZeNtuy" name="上位系統交握流程大綱">
    <mxGraphModel dx="1066" dy="571" grid="1" gridSize="10" guides="1" tooltips="1" connect="1" arrows="1" fold="1" page="1" pageScale="1" pageWidth="827" pageHeight="1169" math="0" shadow="0">
      <root>
        <mxCell id="WIyWlLk6GJQsqaUBKTNV-0" />
        <mxCell id="WIyWlLk6GJQsqaUBKTNV-1" parent="WIyWlLk6GJQsqaUBKTNV-0" />
        <mxCell id="WdYrK9thOPrxCHwOwgn3-37" style="edgeStyle=orthogonalEdgeStyle;rounded=0;orthogonalLoop=1;jettySize=auto;html=1;entryX=0.5;entryY=0;entryDx=0;entryDy=0;" parent="WIyWlLk6GJQsqaUBKTNV-1" source="WSEQELPJCaLikCtenOEo-28" target="WdYrK9thOPrxCHwOwgn3-36" edge="1">
          <mxGeometry relative="1" as="geometry" />
        </mxCell>
        <mxCell id="WSEQELPJCaLikCtenOEo-28" value="取盤至EDM" style="rounded=1;whiteSpace=wrap;html=1;fontSize=12;glass=0;strokeWidth=1;shadow=0;" parent="WIyWlLk6GJQsqaUBKTNV-1" vertex="1">
          <mxGeometry x="100" y="692.5" width="70" height="40" as="geometry" />
        </mxCell>
        <mxCell id="WdYrK9thOPrxCHwOwgn3-38" style="edgeStyle=orthogonalEdgeStyle;rounded=0;orthogonalLoop=1;jettySize=auto;html=1;entryX=0.5;entryY=0;entryDx=0;entryDy=0;" parent="WIyWlLk6GJQsqaUBKTNV-1" source="WSEQELPJCaLikCtenOEo-33" target="WdYrK9thOPrxCHwOwgn3-36" edge="1">
          <mxGeometry relative="1" as="geometry" />
        </mxCell>
        <mxCell id="WSEQELPJCaLikCtenOEo-33" value="放盤回倉儲" style="rounded=1;whiteSpace=wrap;html=1;fontSize=12;glass=0;strokeWidth=1;shadow=0;" parent="WIyWlLk6GJQsqaUBKTNV-1" vertex="1">
          <mxGeometry x="190" y="692.5" width="70" height="40" as="geometry" />
        </mxCell>
        <mxCell id="WIyWlLk6GJQsqaUBKTNV-2" value="" style="rounded=0;html=1;jettySize=auto;orthogonalLoop=1;fontSize=11;endArrow=block;endFill=0;endSize=8;strokeWidth=1;shadow=0;labelBackgroundColor=none;edgeStyle=orthogonalEdgeStyle;exitX=0.5;exitY=1;exitDx=0;exitDy=0;" parent="WIyWlLk6GJQsqaUBKTNV-1" source="WSEQELPJCaLikCtenOEo-1" target="WIyWlLk6GJQsqaUBKTNV-6" edge="1">
          <mxGeometry relative="1" as="geometry">
            <mxPoint x="403" y="191.5" as="sourcePoint" />
          </mxGeometry>
        </mxCell>
        <mxCell id="WIyWlLk6GJQsqaUBKTNV-4" value="" style="rounded=0;html=1;jettySize=auto;orthogonalLoop=1;fontSize=11;endArrow=block;endFill=0;endSize=8;strokeWidth=1;shadow=0;labelBackgroundColor=none;edgeStyle=orthogonalEdgeStyle;" parent="WIyWlLk6GJQsqaUBKTNV-1" source="WIyWlLk6GJQsqaUBKTNV-6" target="WIyWlLk6GJQsqaUBKTNV-10" edge="1">
          <mxGeometry y="20" relative="1" as="geometry">
            <mxPoint as="offset" />
          </mxGeometry>
        </mxCell>
        <mxCell id="WIyWlLk6GJQsqaUBKTNV-6" value="&lt;p style=&quot;line-height: 120%; font-size: 12px;&quot;&gt;判斷設備是否&lt;/p&gt;&lt;p style=&quot;line-height: 120%; font-size: 12px;&quot;&gt;&lt;span style=&quot;background-color: initial;&quot;&gt;進入自動模式&lt;/span&gt;&lt;/p&gt;" style="rhombus;whiteSpace=wrap;html=1;shadow=0;fontFamily=Helvetica;fontSize=12;align=center;strokeWidth=1;spacing=5;spacingTop=-4;verticalAlign=middle;labelBackgroundColor=none;labelBorderColor=none;fillColor=#dae8fc;strokeColor=#6c8ebf;" parent="WIyWlLk6GJQsqaUBKTNV-1" vertex="1">
          <mxGeometry x="343" y="220.5" width="120" height="80" as="geometry" />
        </mxCell>
        <mxCell id="WIyWlLk6GJQsqaUBKTNV-8" value="YES" style="rounded=0;html=1;jettySize=auto;orthogonalLoop=1;fontSize=11;endArrow=block;endFill=0;endSize=8;strokeWidth=1;shadow=0;labelBackgroundColor=none;edgeStyle=orthogonalEdgeStyle;" parent="WIyWlLk6GJQsqaUBKTNV-1" source="WIyWlLk6GJQsqaUBKTNV-10" target="WIyWlLk6GJQsqaUBKTNV-11" edge="1">
          <mxGeometry x="0.3333" y="20" relative="1" as="geometry">
            <mxPoint as="offset" />
          </mxGeometry>
        </mxCell>
        <mxCell id="WIyWlLk6GJQsqaUBKTNV-10" value="&lt;font style=&quot;font-size: 12px;&quot;&gt;判斷設備狀態&lt;/font&gt;&lt;div style=&quot;line-height: 120%;&quot;&gt;&lt;div style=&quot;line-height: 120%;&quot;&gt;&lt;font style=&quot;font-size: 12px;&quot;&gt;是否準備&lt;/font&gt;&lt;/div&gt;&lt;/div&gt;" style="rhombus;whiteSpace=wrap;html=1;shadow=0;fontFamily=Helvetica;fontSize=12;align=center;strokeWidth=1;spacing=6;spacingTop=-4;fillColor=#dae8fc;strokeColor=#6c8ebf;" parent="WIyWlLk6GJQsqaUBKTNV-1" vertex="1">
          <mxGeometry x="343" y="340.5" width="120" height="80" as="geometry" />
        </mxCell>
        <mxCell id="WIyWlLk6GJQsqaUBKTNV-11" value="命令" style="rounded=1;whiteSpace=wrap;html=1;fontSize=12;glass=0;strokeWidth=1;shadow=0;" parent="WIyWlLk6GJQsqaUBKTNV-1" vertex="1">
          <mxGeometry x="353" y="450.5" width="100" height="40" as="geometry" />
        </mxCell>
        <mxCell id="WSEQELPJCaLikCtenOEo-1" value="與上位交握" style="ellipse;whiteSpace=wrap;html=1;" parent="WIyWlLk6GJQsqaUBKTNV-1" vertex="1">
          <mxGeometry x="344" y="130.5" width="120" height="50" as="geometry" />
        </mxCell>
        <mxCell id="WSEQELPJCaLikCtenOEo-13" value="" style="edgeStyle=segmentEdgeStyle;endArrow=classic;html=1;curved=0;rounded=0;endSize=8;startSize=8;" parent="WIyWlLk6GJQsqaUBKTNV-1" edge="1">
          <mxGeometry width="50" height="50" relative="1" as="geometry">
            <mxPoint x="463" y="261.5" as="sourcePoint" />
            <mxPoint x="403" y="201.5" as="targetPoint" />
            <Array as="points">
              <mxPoint x="483" y="260.5" />
              <mxPoint x="483" y="200.5" />
            </Array>
          </mxGeometry>
        </mxCell>
        <mxCell id="WSEQELPJCaLikCtenOEo-14" value="NO" style="edgeLabel;html=1;align=center;verticalAlign=middle;resizable=0;points=[];" parent="WSEQELPJCaLikCtenOEo-13" vertex="1" connectable="0">
          <mxGeometry relative="1" as="geometry">
            <mxPoint x="-7" y="30" as="offset" />
          </mxGeometry>
        </mxCell>
        <mxCell id="WSEQELPJCaLikCtenOEo-36" value="" style="edgeStyle=segmentEdgeStyle;endArrow=classic;html=1;curved=0;rounded=0;endSize=8;startSize=8;" parent="WIyWlLk6GJQsqaUBKTNV-1" edge="1">
          <mxGeometry width="50" height="50" relative="1" as="geometry">
            <mxPoint x="463" y="380.5" as="sourcePoint" />
            <mxPoint x="403" y="320.5" as="targetPoint" />
            <Array as="points">
              <mxPoint x="483" y="380.5" />
              <mxPoint x="483" y="320.5" />
            </Array>
          </mxGeometry>
        </mxCell>
        <mxCell id="WSEQELPJCaLikCtenOEo-37" value="NO" style="edgeLabel;html=1;align=center;verticalAlign=middle;resizable=0;points=[];" parent="WSEQELPJCaLikCtenOEo-36" vertex="1" connectable="0">
          <mxGeometry relative="1" as="geometry">
            <mxPoint x="-7" y="30" as="offset" />
          </mxGeometry>
        </mxCell>
        <mxCell id="WdYrK9thOPrxCHwOwgn3-72" style="edgeStyle=orthogonalEdgeStyle;rounded=0;orthogonalLoop=1;jettySize=auto;html=1;entryX=0.5;entryY=0;entryDx=0;entryDy=0;" parent="WIyWlLk6GJQsqaUBKTNV-1" source="WSEQELPJCaLikCtenOEo-40" target="WdYrK9thOPrxCHwOwgn3-71" edge="1">
          <mxGeometry relative="1" as="geometry" />
        </mxCell>
        <mxCell id="WSEQELPJCaLikCtenOEo-40" value="手動上下盤" style="rounded=1;whiteSpace=wrap;html=1;fontSize=12;glass=0;strokeWidth=1;shadow=0;" parent="WIyWlLk6GJQsqaUBKTNV-1" vertex="1">
          <mxGeometry x="1050" y="120" width="100" height="40" as="geometry" />
        </mxCell>
        <mxCell id="WdYrK9thOPrxCHwOwgn3-94" style="edgeStyle=orthogonalEdgeStyle;rounded=0;orthogonalLoop=1;jettySize=auto;html=1;entryX=0.5;entryY=0;entryDx=0;entryDy=0;" parent="WIyWlLk6GJQsqaUBKTNV-1" source="WSEQELPJCaLikCtenOEo-41" target="WdYrK9thOPrxCHwOwgn3-91" edge="1">
          <mxGeometry relative="1" as="geometry" />
        </mxCell>
        <mxCell id="WSEQELPJCaLikCtenOEo-41" value="手動上下刀" style="rounded=1;whiteSpace=wrap;html=1;fontSize=12;glass=0;strokeWidth=1;shadow=0;" parent="WIyWlLk6GJQsqaUBKTNV-1" vertex="1">
          <mxGeometry x="1290" y="122.5" width="100" height="40" as="geometry" />
        </mxCell>
        <mxCell id="WdYrK9thOPrxCHwOwgn3-11" style="edgeStyle=orthogonalEdgeStyle;rounded=0;orthogonalLoop=1;jettySize=auto;html=1;entryX=0.5;entryY=0;entryDx=0;entryDy=0;" parent="WIyWlLk6GJQsqaUBKTNV-1" source="WSEQELPJCaLikCtenOEo-42" target="WSEQELPJCaLikCtenOEo-28" edge="1">
          <mxGeometry relative="1" as="geometry" />
        </mxCell>
        <mxCell id="WdYrK9thOPrxCHwOwgn3-12" style="edgeStyle=orthogonalEdgeStyle;rounded=0;orthogonalLoop=1;jettySize=auto;html=1;entryX=0.5;entryY=0;entryDx=0;entryDy=0;" parent="WIyWlLk6GJQsqaUBKTNV-1" source="WSEQELPJCaLikCtenOEo-42" target="WSEQELPJCaLikCtenOEo-33" edge="1">
          <mxGeometry relative="1" as="geometry" />
        </mxCell>
        <mxCell id="WSEQELPJCaLikCtenOEo-42" value="EDM取放盤" style="rounded=1;whiteSpace=wrap;html=1;fontSize=12;glass=0;strokeWidth=1;shadow=0;" parent="WIyWlLk6GJQsqaUBKTNV-1" vertex="1">
          <mxGeometry x="130" y="612.5" width="100" height="40" as="geometry" />
        </mxCell>
        <mxCell id="WdYrK9thOPrxCHwOwgn3-40" style="edgeStyle=orthogonalEdgeStyle;rounded=0;orthogonalLoop=1;jettySize=auto;html=1;entryX=0.5;entryY=0;entryDx=0;entryDy=0;" parent="WIyWlLk6GJQsqaUBKTNV-1" source="WdYrK9thOPrxCHwOwgn3-36" target="WdYrK9thOPrxCHwOwgn3-39" edge="1">
          <mxGeometry relative="1" as="geometry" />
        </mxCell>
        <mxCell id="WdYrK9thOPrxCHwOwgn3-41" value="NO" style="edgeLabel;html=1;align=center;verticalAlign=middle;resizable=0;points=[];" parent="WdYrK9thOPrxCHwOwgn3-40" vertex="1" connectable="0">
          <mxGeometry x="0.0118" y="1" relative="1" as="geometry">
            <mxPoint x="44" y="-18" as="offset" />
          </mxGeometry>
        </mxCell>
        <mxCell id="WdYrK9thOPrxCHwOwgn3-43" value="YES" style="edgeStyle=orthogonalEdgeStyle;rounded=0;orthogonalLoop=1;jettySize=auto;html=1;entryX=0;entryY=0.5;entryDx=0;entryDy=0;" parent="WIyWlLk6GJQsqaUBKTNV-1" source="WdYrK9thOPrxCHwOwgn3-36" target="WdYrK9thOPrxCHwOwgn3-42" edge="1">
          <mxGeometry x="-0.1429" y="10" relative="1" as="geometry">
            <mxPoint as="offset" />
          </mxGeometry>
        </mxCell>
        <mxCell id="WdYrK9thOPrxCHwOwgn3-47" style="edgeStyle=orthogonalEdgeStyle;rounded=0;orthogonalLoop=1;jettySize=auto;html=1;entryX=0.5;entryY=0;entryDx=0;entryDy=0;" parent="WIyWlLk6GJQsqaUBKTNV-1" source="WdYrK9thOPrxCHwOwgn3-36" target="WdYrK9thOPrxCHwOwgn3-46" edge="1">
          <mxGeometry relative="1" as="geometry" />
        </mxCell>
        <mxCell id="WdYrK9thOPrxCHwOwgn3-36" value="判斷手臂是否&lt;div&gt;安裝取刀夾治具&lt;/div&gt;" style="rhombus;whiteSpace=wrap;html=1;shadow=0;fontFamily=Helvetica;fontSize=12;align=center;strokeWidth=1;spacing=6;spacingTop=-4;fillColor=#dae8fc;strokeColor=#6c8ebf;" parent="WIyWlLk6GJQsqaUBKTNV-1" vertex="1">
          <mxGeometry x="120" y="782.5" width="120" height="80" as="geometry" />
        </mxCell>
        <mxCell id="WdYrK9thOPrxCHwOwgn3-51" style="edgeStyle=orthogonalEdgeStyle;rounded=0;orthogonalLoop=1;jettySize=auto;html=1;entryX=0.5;entryY=0;entryDx=0;entryDy=0;" parent="WIyWlLk6GJQsqaUBKTNV-1" source="WdYrK9thOPrxCHwOwgn3-39" target="WdYrK9thOPrxCHwOwgn3-50" edge="1">
          <mxGeometry relative="1" as="geometry" />
        </mxCell>
        <mxCell id="WdYrK9thOPrxCHwOwgn3-39" value="命令取盤" style="rounded=1;whiteSpace=wrap;html=1;fontSize=12;glass=0;strokeWidth=1;shadow=0;" parent="WIyWlLk6GJQsqaUBKTNV-1" vertex="1">
          <mxGeometry x="100" y="912.5" width="70" height="40" as="geometry" />
        </mxCell>
        <mxCell id="WdYrK9thOPrxCHwOwgn3-119" style="edgeStyle=orthogonalEdgeStyle;rounded=0;orthogonalLoop=1;jettySize=auto;html=1;" parent="WIyWlLk6GJQsqaUBKTNV-1" source="WdYrK9thOPrxCHwOwgn3-42" edge="1">
          <mxGeometry relative="1" as="geometry">
            <mxPoint x="221" y="870" as="targetPoint" />
            <Array as="points">
              <mxPoint x="345" y="870" />
            </Array>
          </mxGeometry>
        </mxCell>
        <mxCell id="WdYrK9thOPrxCHwOwgn3-42" value="命令卸除&lt;div&gt;夾治具&lt;/div&gt;" style="rounded=1;whiteSpace=wrap;html=1;fontSize=12;glass=0;strokeWidth=1;shadow=0;" parent="WIyWlLk6GJQsqaUBKTNV-1" vertex="1">
          <mxGeometry x="310" y="802.5" width="70" height="40" as="geometry" />
        </mxCell>
        <mxCell id="WdYrK9thOPrxCHwOwgn3-52" style="edgeStyle=orthogonalEdgeStyle;rounded=0;orthogonalLoop=1;jettySize=auto;html=1;entryX=0.5;entryY=0;entryDx=0;entryDy=0;" parent="WIyWlLk6GJQsqaUBKTNV-1" source="WdYrK9thOPrxCHwOwgn3-46" target="WdYrK9thOPrxCHwOwgn3-50" edge="1">
          <mxGeometry relative="1" as="geometry" />
        </mxCell>
        <mxCell id="WdYrK9thOPrxCHwOwgn3-46" value="命令放盤" style="rounded=1;whiteSpace=wrap;html=1;fontSize=12;glass=0;strokeWidth=1;shadow=0;" parent="WIyWlLk6GJQsqaUBKTNV-1" vertex="1">
          <mxGeometry x="190" y="912.5" width="70" height="40" as="geometry" />
        </mxCell>
        <mxCell id="WdYrK9thOPrxCHwOwgn3-50" value="交握流程" style="shape=process;whiteSpace=wrap;html=1;backgroundOutline=1;" parent="WIyWlLk6GJQsqaUBKTNV-1" vertex="1">
          <mxGeometry x="142" y="1002.5" width="76" height="40" as="geometry" />
        </mxCell>
        <mxCell id="WdYrK9thOPrxCHwOwgn3-53" style="edgeStyle=orthogonalEdgeStyle;rounded=0;orthogonalLoop=1;jettySize=auto;html=1;entryX=0.5;entryY=0;entryDx=0;entryDy=0;" parent="WIyWlLk6GJQsqaUBKTNV-1" source="WdYrK9thOPrxCHwOwgn3-54" target="WdYrK9thOPrxCHwOwgn3-64" edge="1">
          <mxGeometry relative="1" as="geometry" />
        </mxCell>
        <mxCell id="WdYrK9thOPrxCHwOwgn3-54" value="取刀至EDM" style="rounded=1;whiteSpace=wrap;html=1;fontSize=12;glass=0;strokeWidth=1;shadow=0;" parent="WIyWlLk6GJQsqaUBKTNV-1" vertex="1">
          <mxGeometry x="503" y="692.5" width="70" height="40" as="geometry" />
        </mxCell>
        <mxCell id="WdYrK9thOPrxCHwOwgn3-55" style="edgeStyle=orthogonalEdgeStyle;rounded=0;orthogonalLoop=1;jettySize=auto;html=1;entryX=0.5;entryY=0;entryDx=0;entryDy=0;" parent="WIyWlLk6GJQsqaUBKTNV-1" source="WdYrK9thOPrxCHwOwgn3-56" target="WdYrK9thOPrxCHwOwgn3-64" edge="1">
          <mxGeometry relative="1" as="geometry" />
        </mxCell>
        <mxCell id="WdYrK9thOPrxCHwOwgn3-56" value="放刀回倉儲" style="rounded=1;whiteSpace=wrap;html=1;fontSize=12;glass=0;strokeWidth=1;shadow=0;" parent="WIyWlLk6GJQsqaUBKTNV-1" vertex="1">
          <mxGeometry x="593" y="692.5" width="70" height="40" as="geometry" />
        </mxCell>
        <mxCell id="WdYrK9thOPrxCHwOwgn3-57" style="edgeStyle=orthogonalEdgeStyle;rounded=0;orthogonalLoop=1;jettySize=auto;html=1;entryX=0.5;entryY=0;entryDx=0;entryDy=0;" parent="WIyWlLk6GJQsqaUBKTNV-1" source="WdYrK9thOPrxCHwOwgn3-59" target="WdYrK9thOPrxCHwOwgn3-54" edge="1">
          <mxGeometry relative="1" as="geometry" />
        </mxCell>
        <mxCell id="WdYrK9thOPrxCHwOwgn3-58" style="edgeStyle=orthogonalEdgeStyle;rounded=0;orthogonalLoop=1;jettySize=auto;html=1;entryX=0.5;entryY=0;entryDx=0;entryDy=0;" parent="WIyWlLk6GJQsqaUBKTNV-1" source="WdYrK9thOPrxCHwOwgn3-59" target="WdYrK9thOPrxCHwOwgn3-56" edge="1">
          <mxGeometry relative="1" as="geometry" />
        </mxCell>
        <mxCell id="WdYrK9thOPrxCHwOwgn3-59" value="EDM取放刀" style="rounded=1;whiteSpace=wrap;html=1;fontSize=12;glass=0;strokeWidth=1;shadow=0;" parent="WIyWlLk6GJQsqaUBKTNV-1" vertex="1">
          <mxGeometry x="533" y="612.5" width="100" height="40" as="geometry" />
        </mxCell>
        <mxCell id="WdYrK9thOPrxCHwOwgn3-60" style="edgeStyle=orthogonalEdgeStyle;rounded=0;orthogonalLoop=1;jettySize=auto;html=1;entryX=0.5;entryY=0;entryDx=0;entryDy=0;" parent="WIyWlLk6GJQsqaUBKTNV-1" source="WdYrK9thOPrxCHwOwgn3-64" target="WdYrK9thOPrxCHwOwgn3-66" edge="1">
          <mxGeometry relative="1" as="geometry" />
        </mxCell>
        <mxCell id="WdYrK9thOPrxCHwOwgn3-61" value="YES" style="edgeLabel;html=1;align=center;verticalAlign=middle;resizable=0;points=[];" parent="WdYrK9thOPrxCHwOwgn3-60" vertex="1" connectable="0">
          <mxGeometry x="0.0118" y="1" relative="1" as="geometry">
            <mxPoint x="38" y="-16" as="offset" />
          </mxGeometry>
        </mxCell>
        <mxCell id="WdYrK9thOPrxCHwOwgn3-62" value="NO" style="edgeStyle=orthogonalEdgeStyle;rounded=0;orthogonalLoop=1;jettySize=auto;html=1;entryX=0;entryY=0.5;entryDx=0;entryDy=0;" parent="WIyWlLk6GJQsqaUBKTNV-1" source="WdYrK9thOPrxCHwOwgn3-64" target="WdYrK9thOPrxCHwOwgn3-67" edge="1">
          <mxGeometry x="-0.1429" y="10" relative="1" as="geometry">
            <mxPoint as="offset" />
          </mxGeometry>
        </mxCell>
        <mxCell id="WdYrK9thOPrxCHwOwgn3-63" style="edgeStyle=orthogonalEdgeStyle;rounded=0;orthogonalLoop=1;jettySize=auto;html=1;entryX=0.5;entryY=0;entryDx=0;entryDy=0;" parent="WIyWlLk6GJQsqaUBKTNV-1" source="WdYrK9thOPrxCHwOwgn3-64" target="WdYrK9thOPrxCHwOwgn3-69" edge="1">
          <mxGeometry relative="1" as="geometry" />
        </mxCell>
        <mxCell id="WdYrK9thOPrxCHwOwgn3-64" value="判斷手臂是否&lt;div&gt;安裝取刀夾治具&lt;/div&gt;" style="rhombus;whiteSpace=wrap;html=1;shadow=0;fontFamily=Helvetica;fontSize=12;align=center;strokeWidth=1;spacing=6;spacingTop=-4;fillColor=#dae8fc;strokeColor=#6c8ebf;" parent="WIyWlLk6GJQsqaUBKTNV-1" vertex="1">
          <mxGeometry x="523" y="782.5" width="120" height="80" as="geometry" />
        </mxCell>
        <mxCell id="WdYrK9thOPrxCHwOwgn3-65" style="edgeStyle=orthogonalEdgeStyle;rounded=0;orthogonalLoop=1;jettySize=auto;html=1;entryX=0.5;entryY=0;entryDx=0;entryDy=0;" parent="WIyWlLk6GJQsqaUBKTNV-1" source="WdYrK9thOPrxCHwOwgn3-66" target="WdYrK9thOPrxCHwOwgn3-70" edge="1">
          <mxGeometry relative="1" as="geometry" />
        </mxCell>
        <mxCell id="WdYrK9thOPrxCHwOwgn3-66" value="命令取刀" style="rounded=1;whiteSpace=wrap;html=1;fontSize=12;glass=0;strokeWidth=1;shadow=0;" parent="WIyWlLk6GJQsqaUBKTNV-1" vertex="1">
          <mxGeometry x="503" y="912.5" width="70" height="40" as="geometry" />
        </mxCell>
        <mxCell id="WdYrK9thOPrxCHwOwgn3-121" style="edgeStyle=orthogonalEdgeStyle;rounded=0;orthogonalLoop=1;jettySize=auto;html=1;" parent="WIyWlLk6GJQsqaUBKTNV-1" source="WdYrK9thOPrxCHwOwgn3-67" edge="1">
          <mxGeometry relative="1" as="geometry">
            <mxPoint x="614" y="872.5" as="targetPoint" />
            <Array as="points">
              <mxPoint x="748" y="872.5" />
              <mxPoint x="664" y="872.5" />
            </Array>
          </mxGeometry>
        </mxCell>
        <mxCell id="WdYrK9thOPrxCHwOwgn3-67" value="命令安裝&lt;div&gt;夾治具&lt;/div&gt;" style="rounded=1;whiteSpace=wrap;html=1;fontSize=12;glass=0;strokeWidth=1;shadow=0;" parent="WIyWlLk6GJQsqaUBKTNV-1" vertex="1">
          <mxGeometry x="713" y="802.5" width="70" height="40" as="geometry" />
        </mxCell>
        <mxCell id="WdYrK9thOPrxCHwOwgn3-68" style="edgeStyle=orthogonalEdgeStyle;rounded=0;orthogonalLoop=1;jettySize=auto;html=1;entryX=0.5;entryY=0;entryDx=0;entryDy=0;" parent="WIyWlLk6GJQsqaUBKTNV-1" source="WdYrK9thOPrxCHwOwgn3-69" target="WdYrK9thOPrxCHwOwgn3-70" edge="1">
          <mxGeometry relative="1" as="geometry" />
        </mxCell>
        <mxCell id="WdYrK9thOPrxCHwOwgn3-69" value="命令放刀" style="rounded=1;whiteSpace=wrap;html=1;fontSize=12;glass=0;strokeWidth=1;shadow=0;" parent="WIyWlLk6GJQsqaUBKTNV-1" vertex="1">
          <mxGeometry x="593" y="912.5" width="70" height="40" as="geometry" />
        </mxCell>
        <mxCell id="WdYrK9thOPrxCHwOwgn3-70" value="交握流程" style="shape=process;whiteSpace=wrap;html=1;backgroundOutline=1;" parent="WIyWlLk6GJQsqaUBKTNV-1" vertex="1">
          <mxGeometry x="545" y="1002.5" width="76" height="40" as="geometry" />
        </mxCell>
        <mxCell id="WdYrK9thOPrxCHwOwgn3-76" style="edgeStyle=orthogonalEdgeStyle;rounded=0;orthogonalLoop=1;jettySize=auto;html=1;entryX=0.5;entryY=0;entryDx=0;entryDy=0;" parent="WIyWlLk6GJQsqaUBKTNV-1" source="WdYrK9thOPrxCHwOwgn3-71" target="WdYrK9thOPrxCHwOwgn3-75" edge="1">
          <mxGeometry relative="1" as="geometry" />
        </mxCell>
        <mxCell id="WdYrK9thOPrxCHwOwgn3-71" value="抽屜安全門解鎖" style="rounded=1;whiteSpace=wrap;html=1;fontSize=12;glass=0;strokeWidth=1;shadow=0;" parent="WIyWlLk6GJQsqaUBKTNV-1" vertex="1">
          <mxGeometry x="1065" y="185" width="70" height="40" as="geometry" />
        </mxCell>
        <mxCell id="WdYrK9thOPrxCHwOwgn3-73" value="上位判斷or倉儲自行判斷" style="text;html=1;align=center;verticalAlign=middle;whiteSpace=wrap;rounded=0;" parent="WIyWlLk6GJQsqaUBKTNV-1" vertex="1">
          <mxGeometry x="50" y="782.5" width="92" height="30" as="geometry" />
        </mxCell>
        <mxCell id="WdYrK9thOPrxCHwOwgn3-84" style="edgeStyle=orthogonalEdgeStyle;rounded=0;orthogonalLoop=1;jettySize=auto;html=1;entryX=0.5;entryY=0;entryDx=0;entryDy=0;" parent="WIyWlLk6GJQsqaUBKTNV-1" source="WdYrK9thOPrxCHwOwgn3-75" target="WdYrK9thOPrxCHwOwgn3-82" edge="1">
          <mxGeometry relative="1" as="geometry" />
        </mxCell>
        <mxCell id="WdYrK9thOPrxCHwOwgn3-75" value="人工入盤&lt;div&gt;完成&lt;/div&gt;" style="rounded=1;whiteSpace=wrap;html=1;fontSize=12;glass=0;strokeWidth=1;shadow=0;" parent="WIyWlLk6GJQsqaUBKTNV-1" vertex="1">
          <mxGeometry x="1065" y="255" width="70" height="40" as="geometry" />
        </mxCell>
        <mxCell id="WdYrK9thOPrxCHwOwgn3-79" value="&lt;h1 style=&quot;margin-top: 0px;&quot;&gt;倉儲狀態&lt;/h1&gt;&lt;p&gt;0 : 閒置&lt;/p&gt;&lt;p&gt;1 : 準備&lt;/p&gt;&lt;p&gt;2 : 預留&lt;/p&gt;&lt;p&gt;3 : 運轉中&lt;/p&gt;&lt;p&gt;4 : 警報&lt;/p&gt;" style="text;html=1;whiteSpace=wrap;overflow=hidden;rounded=0;" parent="WIyWlLk6GJQsqaUBKTNV-1" vertex="1">
          <mxGeometry x="521" y="130.5" width="105" height="180" as="geometry" />
        </mxCell>
        <mxCell id="WdYrK9thOPrxCHwOwgn3-80" value="&lt;h1 style=&quot;margin-top: 0px;&quot;&gt;倉儲模式&lt;/h1&gt;&lt;p&gt;1 : 自動&lt;/p&gt;&lt;p&gt;2 : 手動&lt;/p&gt;&lt;p&gt;3 : 維修&lt;/p&gt;&lt;p&gt;4 : 警報&amp;nbsp;&lt;/p&gt;" style="text;html=1;whiteSpace=wrap;overflow=hidden;rounded=0;" parent="WIyWlLk6GJQsqaUBKTNV-1" vertex="1">
          <mxGeometry x="646" y="130.5" width="105" height="180" as="geometry" />
        </mxCell>
        <mxCell id="WdYrK9thOPrxCHwOwgn3-111" style="edgeStyle=orthogonalEdgeStyle;rounded=0;orthogonalLoop=1;jettySize=auto;html=1;entryX=0.5;entryY=0;entryDx=0;entryDy=0;" parent="WIyWlLk6GJQsqaUBKTNV-1" source="WdYrK9thOPrxCHwOwgn3-81" target="WdYrK9thOPrxCHwOwgn3-88" edge="1">
          <mxGeometry relative="1" as="geometry" />
        </mxCell>
        <mxCell id="WdYrK9thOPrxCHwOwgn3-81" value="抽屜安全門上鎖" style="rounded=1;whiteSpace=wrap;html=1;fontSize=12;glass=0;strokeWidth=1;shadow=0;" parent="WIyWlLk6GJQsqaUBKTNV-1" vertex="1">
          <mxGeometry x="1065" y="535" width="70" height="40" as="geometry" />
        </mxCell>
        <mxCell id="WdYrK9thOPrxCHwOwgn3-109" style="edgeStyle=orthogonalEdgeStyle;rounded=0;orthogonalLoop=1;jettySize=auto;html=1;entryX=0.5;entryY=0;entryDx=0;entryDy=0;" parent="WIyWlLk6GJQsqaUBKTNV-1" source="WdYrK9thOPrxCHwOwgn3-82" target="WdYrK9thOPrxCHwOwgn3-86" edge="1">
          <mxGeometry relative="1" as="geometry" />
        </mxCell>
        <mxCell id="WdYrK9thOPrxCHwOwgn3-82" value="RFID讀取" style="rounded=1;whiteSpace=wrap;html=1;fontSize=12;glass=0;strokeWidth=1;shadow=0;" parent="WIyWlLk6GJQsqaUBKTNV-1" vertex="1">
          <mxGeometry x="1065" y="325" width="70" height="40" as="geometry" />
        </mxCell>
        <mxCell id="WdYrK9thOPrxCHwOwgn3-90" style="edgeStyle=orthogonalEdgeStyle;rounded=0;orthogonalLoop=1;jettySize=auto;html=1;entryX=0.5;entryY=0;entryDx=0;entryDy=0;" parent="WIyWlLk6GJQsqaUBKTNV-1" source="WdYrK9thOPrxCHwOwgn3-83" edge="1">
          <mxGeometry relative="1" as="geometry">
            <mxPoint x="1100" y="535" as="targetPoint" />
          </mxGeometry>
        </mxCell>
        <mxCell id="WdYrK9thOPrxCHwOwgn3-83" value="完成&lt;span style=&quot;background-color: initial;&quot;&gt;訊號&lt;/span&gt;" style="rounded=1;whiteSpace=wrap;html=1;fontSize=12;glass=0;strokeWidth=1;shadow=0;" parent="WIyWlLk6GJQsqaUBKTNV-1" vertex="1">
          <mxGeometry x="1065" y="465" width="70" height="40" as="geometry" />
        </mxCell>
        <mxCell id="WdYrK9thOPrxCHwOwgn3-110" style="edgeStyle=orthogonalEdgeStyle;rounded=0;orthogonalLoop=1;jettySize=auto;html=1;entryX=0.5;entryY=0;entryDx=0;entryDy=0;" parent="WIyWlLk6GJQsqaUBKTNV-1" source="WdYrK9thOPrxCHwOwgn3-86" target="WdYrK9thOPrxCHwOwgn3-83" edge="1">
          <mxGeometry relative="1" as="geometry" />
        </mxCell>
        <mxCell id="WdYrK9thOPrxCHwOwgn3-86" value="資料傳送&lt;div&gt;上位&lt;/div&gt;" style="rounded=1;whiteSpace=wrap;html=1;fontSize=12;glass=0;strokeWidth=1;shadow=0;" parent="WIyWlLk6GJQsqaUBKTNV-1" vertex="1">
          <mxGeometry x="1065" y="395" width="70" height="40" as="geometry" />
        </mxCell>
        <mxCell id="WdYrK9thOPrxCHwOwgn3-113" style="edgeStyle=orthogonalEdgeStyle;rounded=0;orthogonalLoop=1;jettySize=auto;html=1;" parent="WIyWlLk6GJQsqaUBKTNV-1" source="WdYrK9thOPrxCHwOwgn3-88" target="WdYrK9thOPrxCHwOwgn3-112" edge="1">
          <mxGeometry relative="1" as="geometry" />
        </mxCell>
        <mxCell id="WdYrK9thOPrxCHwOwgn3-88" value="提供儲位" style="rounded=1;whiteSpace=wrap;html=1;fontSize=12;glass=0;strokeWidth=1;shadow=0;" parent="WIyWlLk6GJQsqaUBKTNV-1" vertex="1">
          <mxGeometry x="1065" y="605" width="70" height="40" as="geometry" />
        </mxCell>
        <mxCell id="WdYrK9thOPrxCHwOwgn3-99" style="edgeStyle=orthogonalEdgeStyle;rounded=0;orthogonalLoop=1;jettySize=auto;html=1;entryX=0.5;entryY=0;entryDx=0;entryDy=0;" parent="WIyWlLk6GJQsqaUBKTNV-1" source="WdYrK9thOPrxCHwOwgn3-91" target="WdYrK9thOPrxCHwOwgn3-95" edge="1">
          <mxGeometry relative="1" as="geometry" />
        </mxCell>
        <mxCell id="WdYrK9thOPrxCHwOwgn3-91" value="抽屜安全門解鎖" style="rounded=1;whiteSpace=wrap;html=1;fontSize=12;glass=0;strokeWidth=1;shadow=0;" parent="WIyWlLk6GJQsqaUBKTNV-1" vertex="1">
          <mxGeometry x="1305" y="187.5" width="70" height="40" as="geometry" />
        </mxCell>
        <mxCell id="WdYrK9thOPrxCHwOwgn3-92" value="自動OR手動?" style="text;html=1;align=center;verticalAlign=middle;whiteSpace=wrap;rounded=0;" parent="WIyWlLk6GJQsqaUBKTNV-1" vertex="1">
          <mxGeometry x="1135" y="190" width="100" height="30" as="geometry" />
        </mxCell>
        <mxCell id="WdYrK9thOPrxCHwOwgn3-93" value="自動OR手動?" style="text;html=1;align=center;verticalAlign=middle;whiteSpace=wrap;rounded=0;" parent="WIyWlLk6GJQsqaUBKTNV-1" vertex="1">
          <mxGeometry x="1375" y="192.5" width="100" height="30" as="geometry" />
        </mxCell>
        <mxCell id="WdYrK9thOPrxCHwOwgn3-100" style="edgeStyle=orthogonalEdgeStyle;rounded=0;orthogonalLoop=1;jettySize=auto;html=1;entryX=0.5;entryY=0;entryDx=0;entryDy=0;" parent="WIyWlLk6GJQsqaUBKTNV-1" source="WdYrK9thOPrxCHwOwgn3-95" target="WdYrK9thOPrxCHwOwgn3-96" edge="1">
          <mxGeometry relative="1" as="geometry" />
        </mxCell>
        <mxCell id="WdYrK9thOPrxCHwOwgn3-95" value="人工入刀&lt;div&gt;完成&lt;/div&gt;" style="rounded=1;whiteSpace=wrap;html=1;fontSize=12;glass=0;strokeWidth=1;shadow=0;" parent="WIyWlLk6GJQsqaUBKTNV-1" vertex="1">
          <mxGeometry x="1305" y="257.5" width="70" height="40" as="geometry" />
        </mxCell>
        <mxCell id="WdYrK9thOPrxCHwOwgn3-102" style="edgeStyle=orthogonalEdgeStyle;rounded=0;orthogonalLoop=1;jettySize=auto;html=1;entryX=0.5;entryY=0;entryDx=0;entryDy=0;" parent="WIyWlLk6GJQsqaUBKTNV-1" source="WdYrK9thOPrxCHwOwgn3-96" target="WdYrK9thOPrxCHwOwgn3-101" edge="1">
          <mxGeometry relative="1" as="geometry" />
        </mxCell>
        <mxCell id="WdYrK9thOPrxCHwOwgn3-96" value="抽屜安全門&lt;div&gt;上鎖&lt;/div&gt;" style="rounded=1;whiteSpace=wrap;html=1;fontSize=12;glass=0;strokeWidth=1;shadow=0;" parent="WIyWlLk6GJQsqaUBKTNV-1" vertex="1">
          <mxGeometry x="1305" y="327.5" width="70" height="40" as="geometry" />
        </mxCell>
        <mxCell id="WdYrK9thOPrxCHwOwgn3-97" value="自動OR手動?" style="text;html=1;align=center;verticalAlign=middle;whiteSpace=wrap;rounded=0;" parent="WIyWlLk6GJQsqaUBKTNV-1" vertex="1">
          <mxGeometry x="1135" y="540" width="100" height="30" as="geometry" />
        </mxCell>
        <mxCell id="WdYrK9thOPrxCHwOwgn3-98" value="自動OR手動?" style="text;html=1;align=center;verticalAlign=middle;whiteSpace=wrap;rounded=0;" parent="WIyWlLk6GJQsqaUBKTNV-1" vertex="1">
          <mxGeometry x="1375" y="332.5" width="100" height="30" as="geometry" />
        </mxCell>
        <mxCell id="WdYrK9thOPrxCHwOwgn3-104" style="edgeStyle=orthogonalEdgeStyle;rounded=0;orthogonalLoop=1;jettySize=auto;html=1;entryX=0.5;entryY=0;entryDx=0;entryDy=0;" parent="WIyWlLk6GJQsqaUBKTNV-1" source="WdYrK9thOPrxCHwOwgn3-101" target="WdYrK9thOPrxCHwOwgn3-103" edge="1">
          <mxGeometry relative="1" as="geometry" />
        </mxCell>
        <mxCell id="WdYrK9thOPrxCHwOwgn3-101" value="巡刀檢查" style="rounded=1;whiteSpace=wrap;html=1;fontSize=12;glass=0;strokeWidth=1;shadow=0;" parent="WIyWlLk6GJQsqaUBKTNV-1" vertex="1">
          <mxGeometry x="1305" y="397.5" width="70" height="40" as="geometry" />
        </mxCell>
        <mxCell id="WdYrK9thOPrxCHwOwgn3-114" style="edgeStyle=orthogonalEdgeStyle;rounded=0;orthogonalLoop=1;jettySize=auto;html=1;entryX=0.5;entryY=0;entryDx=0;entryDy=0;" parent="WIyWlLk6GJQsqaUBKTNV-1" source="WdYrK9thOPrxCHwOwgn3-103" target="WdYrK9thOPrxCHwOwgn3-105" edge="1">
          <mxGeometry relative="1" as="geometry" />
        </mxCell>
        <mxCell id="WdYrK9thOPrxCHwOwgn3-103" value="RFID讀取" style="rounded=1;whiteSpace=wrap;html=1;fontSize=12;glass=0;strokeWidth=1;shadow=0;" parent="WIyWlLk6GJQsqaUBKTNV-1" vertex="1">
          <mxGeometry x="1305" y="467.5" width="70" height="40" as="geometry" />
        </mxCell>
        <mxCell id="WdYrK9thOPrxCHwOwgn3-116" style="edgeStyle=orthogonalEdgeStyle;rounded=0;orthogonalLoop=1;jettySize=auto;html=1;entryX=0.5;entryY=0;entryDx=0;entryDy=0;" parent="WIyWlLk6GJQsqaUBKTNV-1" source="WdYrK9thOPrxCHwOwgn3-105" target="WdYrK9thOPrxCHwOwgn3-115" edge="1">
          <mxGeometry relative="1" as="geometry" />
        </mxCell>
        <mxCell id="WdYrK9thOPrxCHwOwgn3-105" value="資料傳送&lt;div&gt;上位&lt;/div&gt;" style="rounded=1;whiteSpace=wrap;html=1;fontSize=12;glass=0;strokeWidth=1;shadow=0;" parent="WIyWlLk6GJQsqaUBKTNV-1" vertex="1">
          <mxGeometry x="1305" y="537.5" width="70" height="40" as="geometry" />
        </mxCell>
        <mxCell id="WdYrK9thOPrxCHwOwgn3-108" value="上位判斷or倉儲自行判斷" style="text;html=1;align=center;verticalAlign=middle;whiteSpace=wrap;rounded=0;" parent="WIyWlLk6GJQsqaUBKTNV-1" vertex="1">
          <mxGeometry x="453" y="782.5" width="92" height="30" as="geometry" />
        </mxCell>
        <mxCell id="WdYrK9thOPrxCHwOwgn3-112" value="開始入盤" style="rounded=1;whiteSpace=wrap;html=1;fontSize=12;glass=0;strokeWidth=1;shadow=0;" parent="WIyWlLk6GJQsqaUBKTNV-1" vertex="1">
          <mxGeometry x="1065" y="675" width="70" height="40" as="geometry" />
        </mxCell>
        <mxCell id="WdYrK9thOPrxCHwOwgn3-115" value="完成訊號" style="rounded=1;whiteSpace=wrap;html=1;fontSize=12;glass=0;strokeWidth=1;shadow=0;" parent="WIyWlLk6GJQsqaUBKTNV-1" vertex="1">
          <mxGeometry x="1305" y="607.5" width="70" height="40" as="geometry" />
        </mxCell>
        <mxCell id="WdYrK9thOPrxCHwOwgn3-117" value="&lt;h1 style=&quot;margin-top: 0px;&quot;&gt;&lt;font style=&quot;font-size: 21px;&quot;&gt;資訊確認&lt;/font&gt;&lt;/h1&gt;&lt;p style=&quot;font-size: 16px;&quot;&gt;&lt;font style=&quot;font-size: 16px;&quot;&gt;1.使用&lt;span style=&quot;background-color: initial;&quot;&gt;OPC UA or Modbus TCP 與上位機進行通訊交握&lt;/span&gt;&lt;/font&gt;&lt;/p&gt;&lt;p style=&quot;font-size: 16px;&quot;&gt;&lt;span style=&quot;background-color: initial;&quot;&gt;&lt;font style=&quot;font-size: 16px;&quot;&gt;2.設備動作使用API進行互動&lt;/font&gt;&lt;/span&gt;&lt;/p&gt;&lt;p style=&quot;font-size: 16px;&quot;&gt;&lt;span style=&quot;background-color: initial;&quot;&gt;&lt;font style=&quot;font-size: 16px;&quot;&gt;3.設備RFID僅讀取並記憶不包含管理&lt;/font&gt;&lt;/span&gt;&lt;/p&gt;&lt;p style=&quot;font-size: 16px;&quot;&gt;&lt;span style=&quot;background-color: initial;&quot;&gt;&lt;font style=&quot;font-size: 16px;&quot;&gt;4.Q:手動上下料時，兩側安全門需確認自動or手動解鎖?&lt;/font&gt;&lt;/span&gt;&lt;/p&gt;&lt;p style=&quot;font-size: 16px;&quot;&gt;&lt;span style=&quot;background-color: initial;&quot;&gt;&lt;font style=&quot;font-size: 16px;&quot;&gt;5.Q:需確認手臂上是否安裝夾治具判斷權?&lt;/font&gt;&lt;/span&gt;&lt;/p&gt;&lt;p style=&quot;font-size: 16px;&quot;&gt;&lt;span style=&quot;background-color: initial;&quot;&gt;&lt;font style=&quot;font-size: 16px;&quot;&gt;6.與EDM互動訊號由上位機Mapping&lt;/font&gt;&lt;/span&gt;&lt;/p&gt;&lt;p style=&quot;font-size: 16px;&quot;&gt;&lt;span style=&quot;background-color: initial;&quot;&gt;&lt;font style=&quot;font-size: 16px;&quot;&gt;7.安全迴路由EDM提供干接點(NO or NC?)串聯(我司使用雙迴路安全模組閉迴路啟動)&lt;/font&gt;&lt;/span&gt;&lt;/p&gt;&lt;p style=&quot;font-size: 16px;&quot;&gt;&lt;span style=&quot;background-color: initial;&quot;&gt;&lt;font style=&quot;font-size: 16px;&quot;&gt;8.網路交換器使用非中國製產品&lt;/font&gt;&lt;/span&gt;&lt;/p&gt;" style="text;html=1;whiteSpace=wrap;overflow=hidden;rounded=0;fontSize=14;" parent="WIyWlLk6GJQsqaUBKTNV-1" vertex="1">
          <mxGeometry x="930" y="780.5" width="640" height="359.5" as="geometry" />
        </mxCell>
        <mxCell id="SSB4HdazGfFE75uwYPoO-0" value="上位系統交握流程大綱" style="text;strokeColor=none;fillColor=none;html=1;fontSize=24;fontStyle=1;verticalAlign=middle;align=center;" parent="WIyWlLk6GJQsqaUBKTNV-1" vertex="1">
          <mxGeometry x="364" y="40" width="100" height="40" as="geometry" />
        </mxCell>
      </root>
    </mxGraphModel>
  </diagram>
  <diagram id="kdU9P3AmKPq0b8PZJciz" name="交握流程框架">
    <mxGraphModel dx="1254" dy="672" grid="1" gridSize="10" guides="1" tooltips="1" connect="1" arrows="1" fold="1" page="1" pageScale="1" pageWidth="827" pageHeight="1169" math="0" shadow="0">
      <root>
        <mxCell id="0" />
        <mxCell id="1" parent="0" />
        <mxCell id="ON6n46Ah-MRcuqb7TQLn-2" value="" style="rounded=0;html=1;jettySize=auto;orthogonalLoop=1;fontSize=11;endArrow=block;endFill=0;endSize=8;strokeWidth=1;shadow=0;labelBackgroundColor=none;edgeStyle=orthogonalEdgeStyle;" parent="1" source="ON6n46Ah-MRcuqb7TQLn-3" target="ON6n46Ah-MRcuqb7TQLn-5" edge="1">
          <mxGeometry y="20" relative="1" as="geometry">
            <mxPoint as="offset" />
          </mxGeometry>
        </mxCell>
        <mxCell id="ON6n46Ah-MRcuqb7TQLn-3" value="&lt;p style=&quot;line-height: 120%; font-size: 16px;&quot;&gt;&lt;span style=&quot;background-color: initial; font-size: 16px;&quot;&gt;IF&lt;/span&gt;&lt;span style=&quot;background-color: initial; font-size: 16px;&quot;&gt;&amp;nbsp;&lt;/span&gt;&lt;span style=&quot;background-color: initial; font-size: 16px;&quot;&gt;Ipc_Ready&lt;/span&gt;&lt;span style=&quot;background-color: initial; font-size: 16px;&quot;&gt;&amp;nbsp; &amp;nbsp;&lt;/span&gt;&lt;span style=&quot;background-color: initial;&quot;&gt;=&lt;/span&gt;&lt;span style=&quot;background-color: initial;&quot;&gt;True&lt;/span&gt;&lt;/p&gt;" style="rhombus;whiteSpace=wrap;html=1;shadow=0;fontFamily=Helvetica;fontSize=16;align=center;strokeWidth=1;spacing=5;spacingTop=-4;verticalAlign=middle;labelBackgroundColor=none;labelBorderColor=none;fillColor=#dae8fc;strokeColor=#6c8ebf;" parent="1" vertex="1">
          <mxGeometry x="335" y="195" width="120" height="80" as="geometry" />
        </mxCell>
        <mxCell id="JkumICnNOacIAKUpeSs7-1" style="edgeStyle=orthogonalEdgeStyle;rounded=0;orthogonalLoop=1;jettySize=auto;html=1;entryX=0.5;entryY=0;entryDx=0;entryDy=0;" parent="1" source="ON6n46Ah-MRcuqb7TQLn-5" target="ON6n46Ah-MRcuqb7TQLn-6" edge="1">
          <mxGeometry relative="1" as="geometry" />
        </mxCell>
        <mxCell id="AR6rpWfYZDIayn3bG2bk-2" value="TRUE" style="edgeLabel;html=1;align=center;verticalAlign=middle;resizable=0;points=[];fontSize=15;" vertex="1" connectable="0" parent="JkumICnNOacIAKUpeSs7-1">
          <mxGeometry x="-0.0562" y="3" relative="1" as="geometry">
            <mxPoint x="20" y="-1" as="offset" />
          </mxGeometry>
        </mxCell>
        <mxCell id="ON6n46Ah-MRcuqb7TQLn-5" value="IF Ipc_Handshake&lt;br style=&quot;font-size: 16px;&quot;&gt;&lt;div style=&quot;font-size: 16px;&quot;&gt;= True&lt;/div&gt;" style="rhombus;whiteSpace=wrap;html=1;shadow=0;fontFamily=Helvetica;fontSize=16;align=center;strokeWidth=1;spacing=6;spacingTop=-4;fillColor=#dae8fc;strokeColor=#6c8ebf;verticalAlign=middle;" parent="1" vertex="1">
          <mxGeometry x="335" y="315" width="120" height="80" as="geometry" />
        </mxCell>
        <mxCell id="JkumICnNOacIAKUpeSs7-2" style="edgeStyle=orthogonalEdgeStyle;rounded=0;orthogonalLoop=1;jettySize=auto;html=1;entryX=0.5;entryY=0;entryDx=0;entryDy=0;" parent="1" source="ON6n46Ah-MRcuqb7TQLn-6" target="GZZQmXI6CGm0F3-9Iio8-1" edge="1">
          <mxGeometry relative="1" as="geometry" />
        </mxCell>
        <mxCell id="ON6n46Ah-MRcuqb7TQLn-6" value="Plc_Handshake&lt;div style=&quot;font-size: 16px;&quot;&gt;&amp;nbsp;= True&lt;/div&gt;" style="rounded=1;whiteSpace=wrap;html=1;fontSize=16;glass=0;strokeWidth=1;shadow=0;" parent="1" vertex="1">
          <mxGeometry x="335" y="440" width="120" height="55" as="geometry" />
        </mxCell>
        <mxCell id="JkumICnNOacIAKUpeSs7-10" style="edgeStyle=orthogonalEdgeStyle;rounded=0;orthogonalLoop=1;jettySize=auto;html=1;entryX=0.5;entryY=0;entryDx=0;entryDy=0;" parent="1" source="ON6n46Ah-MRcuqb7TQLn-7" target="JkumICnNOacIAKUpeSs7-7" edge="1">
          <mxGeometry relative="1" as="geometry" />
        </mxCell>
        <mxCell id="ON6n46Ah-MRcuqb7TQLn-7" value="交握流程" style="ellipse;whiteSpace=wrap;html=1;fontSize=16;" parent="1" vertex="1">
          <mxGeometry x="335" y="20" width="120" height="50" as="geometry" />
        </mxCell>
        <mxCell id="ON6n46Ah-MRcuqb7TQLn-8" value="" style="edgeStyle=segmentEdgeStyle;endArrow=classic;html=1;curved=0;rounded=0;endSize=8;startSize=8;entryX=1;entryY=0.5;entryDx=0;entryDy=0;" parent="1" target="JkumICnNOacIAKUpeSs7-7" edge="1">
          <mxGeometry width="50" height="50" relative="1" as="geometry">
            <mxPoint x="455" y="236" as="sourcePoint" />
            <mxPoint x="554" y="130" as="targetPoint" />
            <Array as="points">
              <mxPoint x="455" y="235" />
              <mxPoint x="475" y="235" />
              <mxPoint x="475" y="130" />
            </Array>
          </mxGeometry>
        </mxCell>
        <mxCell id="ON6n46Ah-MRcuqb7TQLn-10" value="" style="edgeStyle=segmentEdgeStyle;endArrow=classic;html=1;curved=0;rounded=0;endSize=8;startSize=8;" parent="1" edge="1">
          <mxGeometry width="50" height="50" relative="1" as="geometry">
            <mxPoint x="455" y="355" as="sourcePoint" />
            <mxPoint x="474" y="230" as="targetPoint" />
            <Array as="points">
              <mxPoint x="474" y="355" />
            </Array>
          </mxGeometry>
        </mxCell>
        <mxCell id="ON6n46Ah-MRcuqb7TQLn-11" value="&lt;font style=&quot;font-size: 16px;&quot;&gt;FALSE&lt;/font&gt;" style="edgeLabel;html=1;align=center;verticalAlign=middle;resizable=0;points=[];" parent="ON6n46Ah-MRcuqb7TQLn-10" vertex="1" connectable="0">
          <mxGeometry relative="1" as="geometry">
            <mxPoint x="36" y="-10" as="offset" />
          </mxGeometry>
        </mxCell>
        <mxCell id="JkumICnNOacIAKUpeSs7-14" style="edgeStyle=orthogonalEdgeStyle;rounded=0;orthogonalLoop=1;jettySize=auto;html=1;entryX=0.5;entryY=0;entryDx=0;entryDy=0;" parent="1" source="GZZQmXI6CGm0F3-9Iio8-1" target="JkumICnNOacIAKUpeSs7-12" edge="1">
          <mxGeometry relative="1" as="geometry" />
        </mxCell>
        <mxCell id="AR6rpWfYZDIayn3bG2bk-4" style="edgeStyle=orthogonalEdgeStyle;rounded=0;orthogonalLoop=1;jettySize=auto;html=1;entryX=1;entryY=0.5;entryDx=0;entryDy=0;" edge="1" parent="1" source="GZZQmXI6CGm0F3-9Iio8-1" target="ON6n46Ah-MRcuqb7TQLn-6">
          <mxGeometry relative="1" as="geometry">
            <mxPoint x="469.9999999999998" y="470" as="targetPoint" />
            <Array as="points">
              <mxPoint x="480" y="585" />
              <mxPoint x="480" y="468" />
            </Array>
          </mxGeometry>
        </mxCell>
        <mxCell id="GZZQmXI6CGm0F3-9Iio8-1" value="&lt;div style=&quot;font-size: 16px;&quot;&gt;IF Ipc_Handshake&lt;/div&gt;&lt;div style=&quot;font-size: 16px;&quot;&gt;= False&lt;/div&gt;" style="rhombus;whiteSpace=wrap;html=1;shadow=0;fontFamily=Helvetica;fontSize=17;align=center;strokeWidth=1;spacing=6;spacingTop=-4;fillColor=#dae8fc;strokeColor=#6c8ebf;" parent="1" vertex="1">
          <mxGeometry x="335" y="545" width="120" height="80" as="geometry" />
        </mxCell>
        <mxCell id="JkumICnNOacIAKUpeSs7-9" style="edgeStyle=orthogonalEdgeStyle;rounded=0;orthogonalLoop=1;jettySize=auto;html=1;entryX=0.5;entryY=0;entryDx=0;entryDy=0;" parent="1" source="JkumICnNOacIAKUpeSs7-7" target="ON6n46Ah-MRcuqb7TQLn-3" edge="1">
          <mxGeometry relative="1" as="geometry" />
        </mxCell>
        <mxCell id="JkumICnNOacIAKUpeSs7-7" value="Plc_Handshake&lt;div style=&quot;font-size: 14px;&quot;&gt;&amp;nbsp;= False&lt;/div&gt;" style="rounded=1;whiteSpace=wrap;html=1;fontSize=14;glass=0;strokeWidth=1;shadow=0;" parent="1" vertex="1">
          <mxGeometry x="335" y="110" width="120" height="40" as="geometry" />
        </mxCell>
        <mxCell id="JkumICnNOacIAKUpeSs7-11" value="AND" style="text;html=1;align=center;verticalAlign=middle;whiteSpace=wrap;rounded=0;fontSize=18;fontStyle=1" parent="1" vertex="1">
          <mxGeometry x="324" y="275" width="70" height="35" as="geometry" />
        </mxCell>
        <mxCell id="JkumICnNOacIAKUpeSs7-18" style="edgeStyle=orthogonalEdgeStyle;rounded=0;orthogonalLoop=1;jettySize=auto;html=1;entryX=0.5;entryY=0;entryDx=0;entryDy=0;" parent="1" source="JkumICnNOacIAKUpeSs7-12" target="JkumICnNOacIAKUpeSs7-16" edge="1">
          <mxGeometry relative="1" as="geometry" />
        </mxCell>
        <mxCell id="AR6rpWfYZDIayn3bG2bk-6" style="edgeStyle=orthogonalEdgeStyle;rounded=0;orthogonalLoop=1;jettySize=auto;html=1;" edge="1" parent="1" source="JkumICnNOacIAKUpeSs7-12">
          <mxGeometry relative="1" as="geometry">
            <mxPoint x="480" y="580" as="targetPoint" />
          </mxGeometry>
        </mxCell>
        <mxCell id="JkumICnNOacIAKUpeSs7-12" value="IF Ipc_FuncCode &amp;gt; 0" style="rhombus;whiteSpace=wrap;html=1;shadow=0;fontFamily=Helvetica;fontSize=17;align=center;strokeWidth=1;spacing=6;spacingTop=-4;fillColor=#dae8fc;strokeColor=#6c8ebf;" parent="1" vertex="1">
          <mxGeometry x="335" y="660" width="120" height="80" as="geometry" />
        </mxCell>
        <mxCell id="JkumICnNOacIAKUpeSs7-15" value="AND" style="text;html=1;align=center;verticalAlign=middle;whiteSpace=wrap;rounded=0;fontSize=18;fontStyle=1" parent="1" vertex="1">
          <mxGeometry x="310" y="620" width="70" height="35" as="geometry" />
        </mxCell>
        <mxCell id="JkumICnNOacIAKUpeSs7-21" style="edgeStyle=orthogonalEdgeStyle;rounded=0;orthogonalLoop=1;jettySize=auto;html=1;entryX=0.5;entryY=0;entryDx=0;entryDy=0;" parent="1" source="JkumICnNOacIAKUpeSs7-16" target="JkumICnNOacIAKUpeSs7-20" edge="1">
          <mxGeometry relative="1" as="geometry" />
        </mxCell>
        <mxCell id="JkumICnNOacIAKUpeSs7-16" value="&lt;div style=&quot;&quot;&gt;執行命令&lt;/div&gt;" style="rounded=1;whiteSpace=wrap;html=1;fontSize=16;glass=0;strokeWidth=1;shadow=0;" parent="1" vertex="1">
          <mxGeometry x="335" y="780" width="120" height="55" as="geometry" />
        </mxCell>
        <mxCell id="JkumICnNOacIAKUpeSs7-23" style="edgeStyle=orthogonalEdgeStyle;rounded=0;orthogonalLoop=1;jettySize=auto;html=1;" parent="1" source="JkumICnNOacIAKUpeSs7-20" target="JkumICnNOacIAKUpeSs7-22" edge="1">
          <mxGeometry relative="1" as="geometry" />
        </mxCell>
        <mxCell id="JkumICnNOacIAKUpeSs7-20" value="IF Command_Done" style="rhombus;whiteSpace=wrap;html=1;shadow=0;fontFamily=Helvetica;fontSize=17;align=center;strokeWidth=1;spacing=6;spacingTop=-4;fillColor=#dae8fc;strokeColor=#6c8ebf;" parent="1" vertex="1">
          <mxGeometry x="335" y="870" width="120" height="80" as="geometry" />
        </mxCell>
        <mxCell id="JkumICnNOacIAKUpeSs7-22" value="&lt;div style=&quot;&quot;&gt;PLC_Serial_number+1&lt;/div&gt;" style="rounded=1;whiteSpace=wrap;html=1;fontSize=16;glass=0;strokeWidth=1;shadow=0;" parent="1" vertex="1">
          <mxGeometry x="305.5" y="990" width="179" height="55" as="geometry" />
        </mxCell>
        <mxCell id="AR6rpWfYZDIayn3bG2bk-7" value="&lt;font style=&quot;font-size: 16px;&quot;&gt;FALSE&lt;/font&gt;" style="edgeLabel;html=1;align=center;verticalAlign=middle;resizable=0;points=[];" vertex="1" connectable="0" parent="1">
          <mxGeometry x="510.0000000000002" y="637.5033333333336" as="geometry" />
        </mxCell>
        <mxCell id="AR6rpWfYZDIayn3bG2bk-9" value="TRUE" style="edgeLabel;html=1;align=center;verticalAlign=middle;resizable=0;points=[];fontSize=15;" vertex="1" connectable="0" parent="1">
          <mxGeometry x="422.9999999999998" y="754.9964705882351" as="geometry" />
        </mxCell>
      </root>
    </mxGraphModel>
  </diagram>
  <diagram id="Bz-EnDE-zUovgd8_wRp7" name="自動取放盤">
    <mxGraphModel dx="927" dy="497" grid="1" gridSize="10" guides="1" tooltips="1" connect="1" arrows="1" fold="1" page="1" pageScale="1" pageWidth="827" pageHeight="1169" math="0" shadow="0">
      <root>
        <mxCell id="0" />
        <mxCell id="1" parent="0" />
        <mxCell id="47wrWdd3L2mjf_WElXMA-9" style="edgeStyle=orthogonalEdgeStyle;rounded=0;orthogonalLoop=1;jettySize=auto;html=1;entryX=0.5;entryY=0;entryDx=0;entryDy=0;" parent="1" source="oU-D9ZXMasspkU8ZuEba-1" target="BnTmilz8oHfbCBIqc-CP-27" edge="1">
          <mxGeometry relative="1" as="geometry" />
        </mxCell>
        <mxCell id="q4uCySxD2dMp8tToP51y-7" style="edgeStyle=orthogonalEdgeStyle;rounded=0;orthogonalLoop=1;jettySize=auto;html=1;exitX=1;exitY=0.5;exitDx=0;exitDy=0;" edge="1" parent="1" source="oU-D9ZXMasspkU8ZuEba-1">
          <mxGeometry relative="1" as="geometry">
            <mxPoint x="399" y="250" as="targetPoint" />
            <mxPoint x="449" y="295.00000000000006" as="sourcePoint" />
            <Array as="points">
              <mxPoint x="469" y="325" />
              <mxPoint x="469" y="250" />
            </Array>
          </mxGeometry>
        </mxCell>
        <mxCell id="q4uCySxD2dMp8tToP51y-8" value="NO" style="edgeLabel;html=1;align=center;verticalAlign=middle;resizable=0;points=[];" vertex="1" connectable="0" parent="q4uCySxD2dMp8tToP51y-7">
          <mxGeometry x="-0.6857" y="3" relative="1" as="geometry">
            <mxPoint x="27" y="-32" as="offset" />
          </mxGeometry>
        </mxCell>
        <mxCell id="oU-D9ZXMasspkU8ZuEba-1" value="等待IPC提供儲位(Area,Layer)&lt;div&gt;&amp;amp; EDM編號&lt;br&gt;&lt;/div&gt;" style="rounded=1;whiteSpace=wrap;html=1;fontSize=12;glass=0;strokeWidth=1;shadow=0;" parent="1" vertex="1">
          <mxGeometry x="299" y="300" width="100" height="50" as="geometry" />
        </mxCell>
        <mxCell id="BnTmilz8oHfbCBIqc-CP-50" style="edgeStyle=orthogonalEdgeStyle;rounded=0;orthogonalLoop=1;jettySize=auto;html=1;entryX=0.5;entryY=0;entryDx=0;entryDy=0;" parent="1" source="CWyFZrkRZzsHWCZGAOhn-1" target="CWyFZrkRZzsHWCZGAOhn-3" edge="1">
          <mxGeometry relative="1" as="geometry" />
        </mxCell>
        <mxCell id="CWyFZrkRZzsHWCZGAOhn-1" value="倉儲取盤&lt;span style=&quot;background-color: initial;&quot;&gt;至&lt;/span&gt;&lt;div&gt;&lt;div&gt;EDM&lt;/div&gt;&lt;/div&gt;" style="shape=process;whiteSpace=wrap;html=1;backgroundOutline=1;" parent="1" vertex="1">
          <mxGeometry x="289" y="150" width="120" height="60" as="geometry" />
        </mxCell>
        <mxCell id="BnTmilz8oHfbCBIqc-CP-51" style="edgeStyle=orthogonalEdgeStyle;rounded=0;orthogonalLoop=1;jettySize=auto;html=1;entryX=0.5;entryY=0;entryDx=0;entryDy=0;" parent="1" source="CWyFZrkRZzsHWCZGAOhn-3" target="oU-D9ZXMasspkU8ZuEba-1" edge="1">
          <mxGeometry relative="1" as="geometry" />
        </mxCell>
        <mxCell id="CWyFZrkRZzsHWCZGAOhn-3" value="取盤命令&lt;div&gt;sand交握碼XX&lt;/div&gt;" style="rounded=1;whiteSpace=wrap;html=1;fontSize=12;glass=0;strokeWidth=1;shadow=0;" parent="1" vertex="1">
          <mxGeometry x="299" y="230" width="100" height="40" as="geometry" />
        </mxCell>
        <mxCell id="47wrWdd3L2mjf_WElXMA-6" style="edgeStyle=orthogonalEdgeStyle;rounded=0;orthogonalLoop=1;jettySize=auto;html=1;entryX=0.5;entryY=0;entryDx=0;entryDy=0;" parent="1" source="mAXitz-IS8xNDfhF_4Q9-1" target="47wrWdd3L2mjf_WElXMA-4" edge="1">
          <mxGeometry relative="1" as="geometry" />
        </mxCell>
        <mxCell id="mAXitz-IS8xNDfhF_4Q9-1" value="手臂移動至&lt;div&gt;儲位取盤&lt;/div&gt;" style="rounded=1;whiteSpace=wrap;html=1;fontSize=12;glass=0;strokeWidth=1;shadow=0;" parent="1" vertex="1">
          <mxGeometry x="299" y="600" width="100" height="40" as="geometry" />
        </mxCell>
        <mxCell id="LlQr0eAtsT7UNNzbN5nn-5" value="YES" style="edgeStyle=orthogonalEdgeStyle;rounded=0;orthogonalLoop=1;jettySize=auto;html=1;entryX=0;entryY=0.5;entryDx=0;entryDy=0;" parent="1" source="LlQr0eAtsT7UNNzbN5nn-7" target="LlQr0eAtsT7UNNzbN5nn-9" edge="1">
          <mxGeometry x="-0.1429" y="10" relative="1" as="geometry">
            <mxPoint as="offset" />
          </mxGeometry>
        </mxCell>
        <mxCell id="BnTmilz8oHfbCBIqc-CP-13" style="edgeStyle=orthogonalEdgeStyle;rounded=0;orthogonalLoop=1;jettySize=auto;html=1;entryX=0.5;entryY=0;entryDx=0;entryDy=0;" parent="1" source="LlQr0eAtsT7UNNzbN5nn-7" target="mAXitz-IS8xNDfhF_4Q9-1" edge="1">
          <mxGeometry relative="1" as="geometry" />
        </mxCell>
        <mxCell id="BnTmilz8oHfbCBIqc-CP-14" value="NO" style="edgeLabel;html=1;align=center;verticalAlign=middle;resizable=0;points=[];" parent="BnTmilz8oHfbCBIqc-CP-13" vertex="1" connectable="0">
          <mxGeometry x="-0.4667" relative="1" as="geometry">
            <mxPoint x="15" y="-3" as="offset" />
          </mxGeometry>
        </mxCell>
        <mxCell id="LlQr0eAtsT7UNNzbN5nn-7" value="判斷手臂是否&lt;div&gt;安裝取刀夾治具&lt;/div&gt;" style="rhombus;whiteSpace=wrap;html=1;shadow=0;fontFamily=Helvetica;fontSize=12;align=center;strokeWidth=1;spacing=6;spacingTop=-4;fillColor=#dae8fc;strokeColor=#6c8ebf;" parent="1" vertex="1">
          <mxGeometry x="289" y="490" width="120" height="80" as="geometry" />
        </mxCell>
        <mxCell id="LlQr0eAtsT7UNNzbN5nn-8" style="edgeStyle=orthogonalEdgeStyle;rounded=0;orthogonalLoop=1;jettySize=auto;html=1;exitX=0.5;exitY=1;exitDx=0;exitDy=0;" parent="1" source="LlQr0eAtsT7UNNzbN5nn-9" edge="1">
          <mxGeometry relative="1" as="geometry">
            <mxPoint x="379" y="580" as="targetPoint" />
            <Array as="points">
              <mxPoint x="504" y="580" />
            </Array>
            <mxPoint x="499" y="550" as="sourcePoint" />
          </mxGeometry>
        </mxCell>
        <mxCell id="LlQr0eAtsT7UNNzbN5nn-9" value="命令卸除&lt;div&gt;夾治具&lt;/div&gt;" style="rounded=1;whiteSpace=wrap;html=1;fontSize=12;glass=0;strokeWidth=1;shadow=0;" parent="1" vertex="1">
          <mxGeometry x="469" y="510" width="70" height="40" as="geometry" />
        </mxCell>
        <mxCell id="47wrWdd3L2mjf_WElXMA-8" style="edgeStyle=orthogonalEdgeStyle;rounded=0;orthogonalLoop=1;jettySize=auto;html=1;entryX=0.5;entryY=0;entryDx=0;entryDy=0;" parent="1" source="iUEmy42Fk4Yiiil320JW-1" target="lgD4UrtZexnYWQOaOWqw-5" edge="1">
          <mxGeometry relative="1" as="geometry" />
        </mxCell>
        <mxCell id="iUEmy42Fk4Yiiil320JW-1" value="放盤完成&lt;div&gt;回待機位置&lt;/div&gt;" style="rounded=1;whiteSpace=wrap;html=1;fontSize=12;glass=0;strokeWidth=1;shadow=0;" parent="1" vertex="1">
          <mxGeometry x="299" y="740" width="100" height="40" as="geometry" />
        </mxCell>
        <mxCell id="lgD4UrtZexnYWQOaOWqw-5" value="完成" style="rounded=1;whiteSpace=wrap;html=1;fontSize=12;glass=0;strokeWidth=1;shadow=0;" parent="1" vertex="1">
          <mxGeometry x="299" y="810" width="100" height="40" as="geometry" />
        </mxCell>
        <mxCell id="BnTmilz8oHfbCBIqc-CP-55" style="edgeStyle=orthogonalEdgeStyle;rounded=0;orthogonalLoop=1;jettySize=auto;html=1;entryX=0.5;entryY=0;entryDx=0;entryDy=0;" parent="1" source="lgD4UrtZexnYWQOaOWqw-12" target="lgD4UrtZexnYWQOaOWqw-14" edge="1">
          <mxGeometry relative="1" as="geometry" />
        </mxCell>
        <mxCell id="lgD4UrtZexnYWQOaOWqw-12" value="EDM取盤回&lt;div&gt;倉儲&lt;/div&gt;" style="shape=process;whiteSpace=wrap;html=1;backgroundOutline=1;" parent="1" vertex="1">
          <mxGeometry x="1116" y="150" width="120" height="60" as="geometry" />
        </mxCell>
        <mxCell id="47wrWdd3L2mjf_WElXMA-12" style="edgeStyle=orthogonalEdgeStyle;rounded=0;orthogonalLoop=1;jettySize=auto;html=1;entryX=0.5;entryY=0;entryDx=0;entryDy=0;" parent="1" source="lgD4UrtZexnYWQOaOWqw-14" target="47wrWdd3L2mjf_WElXMA-11" edge="1">
          <mxGeometry relative="1" as="geometry" />
        </mxCell>
        <mxCell id="lgD4UrtZexnYWQOaOWqw-14" value="取盤命令&lt;div&gt;sand交握碼XX&lt;/div&gt;" style="rounded=1;whiteSpace=wrap;html=1;fontSize=12;glass=0;strokeWidth=1;shadow=0;" parent="1" vertex="1">
          <mxGeometry x="1126" y="230" width="100" height="40" as="geometry" />
        </mxCell>
        <mxCell id="lgD4UrtZexnYWQOaOWqw-19" value="YES" style="edgeStyle=orthogonalEdgeStyle;rounded=0;orthogonalLoop=1;jettySize=auto;html=1;entryX=0;entryY=0.5;entryDx=0;entryDy=0;" parent="1" source="lgD4UrtZexnYWQOaOWqw-20" target="lgD4UrtZexnYWQOaOWqw-22" edge="1">
          <mxGeometry x="-0.1429" y="10" relative="1" as="geometry">
            <mxPoint as="offset" />
          </mxGeometry>
        </mxCell>
        <mxCell id="47wrWdd3L2mjf_WElXMA-15" style="edgeStyle=orthogonalEdgeStyle;rounded=0;orthogonalLoop=1;jettySize=auto;html=1;entryX=0.5;entryY=0;entryDx=0;entryDy=0;" parent="1" source="lgD4UrtZexnYWQOaOWqw-20" target="47wrWdd3L2mjf_WElXMA-14" edge="1">
          <mxGeometry relative="1" as="geometry" />
        </mxCell>
        <mxCell id="47wrWdd3L2mjf_WElXMA-16" value="NO" style="edgeLabel;html=1;align=center;verticalAlign=middle;resizable=0;points=[];" parent="47wrWdd3L2mjf_WElXMA-15" vertex="1" connectable="0">
          <mxGeometry x="0.0667" y="-3" relative="1" as="geometry">
            <mxPoint x="9" y="-1" as="offset" />
          </mxGeometry>
        </mxCell>
        <mxCell id="lgD4UrtZexnYWQOaOWqw-20" value="判斷手臂是否&lt;div&gt;安裝取刀夾治具&lt;/div&gt;" style="rhombus;whiteSpace=wrap;html=1;shadow=0;fontFamily=Helvetica;fontSize=12;align=center;strokeWidth=1;spacing=6;spacingTop=-4;fillColor=#dae8fc;strokeColor=#6c8ebf;" parent="1" vertex="1">
          <mxGeometry x="1116" y="495" width="120" height="80" as="geometry" />
        </mxCell>
        <mxCell id="47wrWdd3L2mjf_WElXMA-21" style="edgeStyle=orthogonalEdgeStyle;rounded=0;orthogonalLoop=1;jettySize=auto;html=1;" parent="1" source="lgD4UrtZexnYWQOaOWqw-22" edge="1">
          <mxGeometry relative="1" as="geometry">
            <mxPoint x="1200" y="590" as="targetPoint" />
            <Array as="points">
              <mxPoint x="1331" y="590" />
            </Array>
          </mxGeometry>
        </mxCell>
        <mxCell id="lgD4UrtZexnYWQOaOWqw-22" value="命令卸除&lt;div&gt;夾治具&lt;/div&gt;" style="rounded=1;whiteSpace=wrap;html=1;fontSize=12;glass=0;strokeWidth=1;shadow=0;" parent="1" vertex="1">
          <mxGeometry x="1296" y="515" width="70" height="40" as="geometry" />
        </mxCell>
        <mxCell id="BnTmilz8oHfbCBIqc-CP-25" style="edgeStyle=orthogonalEdgeStyle;rounded=0;orthogonalLoop=1;jettySize=auto;html=1;entryX=0;entryY=0.5;entryDx=0;entryDy=0;" parent="1" source="BnTmilz8oHfbCBIqc-CP-27" target="BnTmilz8oHfbCBIqc-CP-28" edge="1">
          <mxGeometry relative="1" as="geometry" />
        </mxCell>
        <mxCell id="BnTmilz8oHfbCBIqc-CP-26" value="NO" style="edgeLabel;html=1;align=center;verticalAlign=middle;resizable=0;points=[];" parent="BnTmilz8oHfbCBIqc-CP-25" vertex="1" connectable="0">
          <mxGeometry x="-0.359" y="2" relative="1" as="geometry">
            <mxPoint x="6" y="-8" as="offset" />
          </mxGeometry>
        </mxCell>
        <mxCell id="BnTmilz8oHfbCBIqc-CP-52" style="edgeStyle=orthogonalEdgeStyle;rounded=0;orthogonalLoop=1;jettySize=auto;html=1;entryX=0.5;entryY=0;entryDx=0;entryDy=0;" parent="1" source="BnTmilz8oHfbCBIqc-CP-27" target="LlQr0eAtsT7UNNzbN5nn-7" edge="1">
          <mxGeometry relative="1" as="geometry" />
        </mxCell>
        <mxCell id="BnTmilz8oHfbCBIqc-CP-53" value="YES" style="edgeLabel;html=1;align=center;verticalAlign=middle;resizable=0;points=[];" parent="BnTmilz8oHfbCBIqc-CP-52" vertex="1" connectable="0">
          <mxGeometry x="0.3273" y="-1" relative="1" as="geometry">
            <mxPoint x="18" y="-3" as="offset" />
          </mxGeometry>
        </mxCell>
        <mxCell id="BnTmilz8oHfbCBIqc-CP-27" value="判斷儲位&lt;div&gt;狀態是否正確&lt;/div&gt;" style="rhombus;whiteSpace=wrap;html=1;shadow=0;fontFamily=Helvetica;fontSize=12;align=center;strokeWidth=1;spacing=6;spacingTop=-4;fillColor=#dae8fc;strokeColor=#6c8ebf;" parent="1" vertex="1">
          <mxGeometry x="289" y="380" width="120" height="80" as="geometry" />
        </mxCell>
        <mxCell id="BnTmilz8oHfbCBIqc-CP-28" value="回覆錯誤" style="rounded=1;whiteSpace=wrap;html=1;fontSize=12;glass=0;strokeWidth=1;shadow=0;fillColor=#f8cecc;strokeColor=#b85450;" parent="1" vertex="1">
          <mxGeometry x="469" y="400" width="70" height="40" as="geometry" />
        </mxCell>
        <mxCell id="BnTmilz8oHfbCBIqc-CP-34" style="edgeStyle=orthogonalEdgeStyle;rounded=0;orthogonalLoop=1;jettySize=auto;html=1;entryX=0;entryY=0.5;entryDx=0;entryDy=0;" parent="1" source="BnTmilz8oHfbCBIqc-CP-36" target="BnTmilz8oHfbCBIqc-CP-37" edge="1">
          <mxGeometry relative="1" as="geometry" />
        </mxCell>
        <mxCell id="BnTmilz8oHfbCBIqc-CP-35" value="NO" style="edgeLabel;html=1;align=center;verticalAlign=middle;resizable=0;points=[];" parent="BnTmilz8oHfbCBIqc-CP-34" vertex="1" connectable="0">
          <mxGeometry x="-0.359" y="2" relative="1" as="geometry">
            <mxPoint x="6" y="-8" as="offset" />
          </mxGeometry>
        </mxCell>
        <mxCell id="BnTmilz8oHfbCBIqc-CP-58" style="edgeStyle=orthogonalEdgeStyle;rounded=0;orthogonalLoop=1;jettySize=auto;html=1;entryX=0.5;entryY=0;entryDx=0;entryDy=0;" parent="1" source="BnTmilz8oHfbCBIqc-CP-36" target="lgD4UrtZexnYWQOaOWqw-20" edge="1">
          <mxGeometry relative="1" as="geometry" />
        </mxCell>
        <mxCell id="BnTmilz8oHfbCBIqc-CP-59" value="YES" style="edgeLabel;html=1;align=center;verticalAlign=middle;resizable=0;points=[];" parent="BnTmilz8oHfbCBIqc-CP-58" vertex="1" connectable="0">
          <mxGeometry x="-0.3556" relative="1" as="geometry">
            <mxPoint x="13" as="offset" />
          </mxGeometry>
        </mxCell>
        <mxCell id="BnTmilz8oHfbCBIqc-CP-36" value="判斷儲位&lt;div&gt;狀態是否正確&lt;/div&gt;" style="rhombus;whiteSpace=wrap;html=1;shadow=0;fontFamily=Helvetica;fontSize=12;align=center;strokeWidth=1;spacing=6;spacingTop=-4;fillColor=#dae8fc;strokeColor=#6c8ebf;" parent="1" vertex="1">
          <mxGeometry x="1116" y="385" width="120" height="80" as="geometry" />
        </mxCell>
        <mxCell id="BnTmilz8oHfbCBIqc-CP-37" value="回覆錯誤" style="rounded=1;whiteSpace=wrap;html=1;fontSize=12;glass=0;strokeWidth=1;shadow=0;fillColor=#f8cecc;strokeColor=#b85450;" parent="1" vertex="1">
          <mxGeometry x="1296" y="405" width="70" height="40" as="geometry" />
        </mxCell>
        <mxCell id="BnTmilz8oHfbCBIqc-CP-48" style="edgeStyle=orthogonalEdgeStyle;rounded=0;orthogonalLoop=1;jettySize=auto;html=1;entryX=0.5;entryY=0;entryDx=0;entryDy=0;" parent="1" source="BnTmilz8oHfbCBIqc-CP-44" target="BnTmilz8oHfbCBIqc-CP-45" edge="1">
          <mxGeometry relative="1" as="geometry" />
        </mxCell>
        <mxCell id="BnTmilz8oHfbCBIqc-CP-44" value="放盤完成&lt;div&gt;回待機位置&lt;/div&gt;" style="rounded=1;whiteSpace=wrap;html=1;fontSize=12;glass=0;strokeWidth=1;shadow=0;" parent="1" vertex="1">
          <mxGeometry x="1126" y="750" width="100" height="40" as="geometry" />
        </mxCell>
        <mxCell id="BnTmilz8oHfbCBIqc-CP-45" value="完成" style="rounded=1;whiteSpace=wrap;html=1;fontSize=12;glass=0;strokeWidth=1;shadow=0;" parent="1" vertex="1">
          <mxGeometry x="1126" y="820" width="100" height="40" as="geometry" />
        </mxCell>
        <mxCell id="Beq8_PtKGWV7qVRGRvQm-1" value="倉儲取盤至EDM交握流程圖" style="text;strokeColor=none;fillColor=none;html=1;fontSize=24;fontStyle=1;verticalAlign=middle;align=center;" parent="1" vertex="1">
          <mxGeometry x="560" y="70" width="100" height="40" as="geometry" />
        </mxCell>
        <mxCell id="Beq8_PtKGWV7qVRGRvQm-2" value="EDM取盤回倉儲交握流程圖" style="text;strokeColor=none;fillColor=none;html=1;fontSize=24;fontStyle=1;verticalAlign=middle;align=center;" parent="1" vertex="1">
          <mxGeometry x="1337" y="70" width="100" height="40" as="geometry" />
        </mxCell>
        <mxCell id="47wrWdd3L2mjf_WElXMA-1" value="&lt;font style=&quot;font-size: 18px;&quot;&gt;更新履歷:&lt;/font&gt;&lt;div style=&quot;font-size: 18px;&quot;&gt;20240624簡化流程&lt;/div&gt;" style="text;html=1;align=left;verticalAlign=top;whiteSpace=wrap;rounded=0;labelPosition=center;verticalLabelPosition=middle;" parent="1" vertex="1">
          <mxGeometry x="399" y="1040" width="420" height="99" as="geometry" />
        </mxCell>
        <mxCell id="47wrWdd3L2mjf_WElXMA-7" style="edgeStyle=orthogonalEdgeStyle;rounded=0;orthogonalLoop=1;jettySize=auto;html=1;entryX=0.5;entryY=0;entryDx=0;entryDy=0;" parent="1" source="47wrWdd3L2mjf_WElXMA-4" target="iUEmy42Fk4Yiiil320JW-1" edge="1">
          <mxGeometry relative="1" as="geometry" />
        </mxCell>
        <mxCell id="47wrWdd3L2mjf_WElXMA-4" value="取盤完成&lt;div&gt;移動至EDM&lt;/div&gt;" style="rounded=1;whiteSpace=wrap;html=1;fontSize=12;glass=0;strokeWidth=1;shadow=0;" parent="1" vertex="1">
          <mxGeometry x="299" y="670" width="100" height="40" as="geometry" />
        </mxCell>
        <mxCell id="47wrWdd3L2mjf_WElXMA-13" style="edgeStyle=orthogonalEdgeStyle;rounded=0;orthogonalLoop=1;jettySize=auto;html=1;entryX=0.5;entryY=0;entryDx=0;entryDy=0;" parent="1" source="47wrWdd3L2mjf_WElXMA-11" target="BnTmilz8oHfbCBIqc-CP-36" edge="1">
          <mxGeometry relative="1" as="geometry" />
        </mxCell>
        <mxCell id="47wrWdd3L2mjf_WElXMA-11" value="IPC提供儲位(Area,Layer)&lt;div&gt;&amp;amp; EDM編號&lt;br&gt;&lt;/div&gt;" style="rounded=1;whiteSpace=wrap;html=1;fontSize=12;glass=0;strokeWidth=1;shadow=0;" parent="1" vertex="1">
          <mxGeometry x="1126" y="300" width="100" height="50" as="geometry" />
        </mxCell>
        <mxCell id="47wrWdd3L2mjf_WElXMA-23" style="edgeStyle=orthogonalEdgeStyle;rounded=0;orthogonalLoop=1;jettySize=auto;html=1;entryX=0.5;entryY=0;entryDx=0;entryDy=0;" parent="1" source="47wrWdd3L2mjf_WElXMA-14" target="47wrWdd3L2mjf_WElXMA-22" edge="1">
          <mxGeometry relative="1" as="geometry" />
        </mxCell>
        <mxCell id="47wrWdd3L2mjf_WElXMA-14" value="手臂移動至&lt;div&gt;EDM取盤&lt;/div&gt;" style="rounded=1;whiteSpace=wrap;html=1;fontSize=12;glass=0;strokeWidth=1;shadow=0;" parent="1" vertex="1">
          <mxGeometry x="1126" y="610" width="100" height="40" as="geometry" />
        </mxCell>
        <mxCell id="47wrWdd3L2mjf_WElXMA-24" style="edgeStyle=orthogonalEdgeStyle;rounded=0;orthogonalLoop=1;jettySize=auto;html=1;entryX=0.5;entryY=0;entryDx=0;entryDy=0;" parent="1" source="47wrWdd3L2mjf_WElXMA-22" target="BnTmilz8oHfbCBIqc-CP-44" edge="1">
          <mxGeometry relative="1" as="geometry" />
        </mxCell>
        <mxCell id="47wrWdd3L2mjf_WElXMA-22" value="取盤完成&lt;div&gt;移動至儲位&lt;/div&gt;" style="rounded=1;whiteSpace=wrap;html=1;fontSize=12;glass=0;strokeWidth=1;shadow=0;" parent="1" vertex="1">
          <mxGeometry x="1126" y="680" width="100" height="40" as="geometry" />
        </mxCell>
        <mxCell id="47wrWdd3L2mjf_WElXMA-25" value="&lt;font style=&quot;font-size: 18px;&quot;&gt;更新履歷:&lt;/font&gt;&lt;div style=&quot;font-size: 18px;&quot;&gt;20240624簡化流程&lt;/div&gt;" style="text;html=1;align=left;verticalAlign=top;whiteSpace=wrap;rounded=0;labelPosition=center;verticalLabelPosition=middle;" parent="1" vertex="1">
          <mxGeometry x="1190" y="1040" width="420" height="99" as="geometry" />
        </mxCell>
      </root>
    </mxGraphModel>
  </diagram>
  <diagram id="2wA8hH6l1dgdZjdpqcF2" name="自動取放刀">
    <mxGraphModel dx="1254" dy="672" grid="1" gridSize="10" guides="1" tooltips="1" connect="1" arrows="1" fold="1" page="1" pageScale="1" pageWidth="827" pageHeight="1169" math="0" shadow="0">
      <root>
        <mxCell id="0" />
        <mxCell id="1" parent="0" />
        <mxCell id="3dZJNFZHPKCO823eB3yJ-1" value="提供刀位(Layer,tool num)&lt;div&gt;&amp;amp; EDM編號&lt;br&gt;&lt;/div&gt;" style="rounded=1;whiteSpace=wrap;html=1;fontSize=12;glass=0;strokeWidth=1;shadow=0;" parent="1" vertex="1">
          <mxGeometry x="310" y="280" width="100" height="40" as="geometry" />
        </mxCell>
        <mxCell id="3dZJNFZHPKCO823eB3yJ-6" style="edgeStyle=orthogonalEdgeStyle;rounded=0;orthogonalLoop=1;jettySize=auto;html=1;entryX=0.5;entryY=0;entryDx=0;entryDy=0;" parent="1" source="3dZJNFZHPKCO823eB3yJ-7" target="3dZJNFZHPKCO823eB3yJ-9" edge="1">
          <mxGeometry relative="1" as="geometry" />
        </mxCell>
        <mxCell id="3dZJNFZHPKCO823eB3yJ-7" value="倉儲取刀&lt;span style=&quot;background-color: initial;&quot;&gt;至&lt;/span&gt;&lt;div&gt;&lt;div&gt;EDM到位&lt;/div&gt;&lt;/div&gt;" style="shape=process;whiteSpace=wrap;html=1;backgroundOutline=1;" parent="1" vertex="1">
          <mxGeometry x="300" y="140" width="120" height="60" as="geometry" />
        </mxCell>
        <mxCell id="3dZJNFZHPKCO823eB3yJ-8" style="edgeStyle=orthogonalEdgeStyle;rounded=0;orthogonalLoop=1;jettySize=auto;html=1;entryX=0.5;entryY=0;entryDx=0;entryDy=0;" parent="1" source="3dZJNFZHPKCO823eB3yJ-9" target="3dZJNFZHPKCO823eB3yJ-1" edge="1">
          <mxGeometry relative="1" as="geometry" />
        </mxCell>
        <mxCell id="3dZJNFZHPKCO823eB3yJ-9" value="取刀命令&lt;div&gt;sand交握碼XX&lt;/div&gt;" style="rounded=1;whiteSpace=wrap;html=1;fontSize=12;glass=0;strokeWidth=1;shadow=0;" parent="1" vertex="1">
          <mxGeometry x="310" y="220" width="100" height="40" as="geometry" />
        </mxCell>
        <mxCell id="xtFYvQuUhFj0W8ld0y1l-2" style="edgeStyle=orthogonalEdgeStyle;rounded=0;orthogonalLoop=1;jettySize=auto;html=1;entryX=0.5;entryY=0;entryDx=0;entryDy=0;" parent="1" source="3dZJNFZHPKCO823eB3yJ-11" target="xtFYvQuUhFj0W8ld0y1l-1" edge="1">
          <mxGeometry relative="1" as="geometry" />
        </mxCell>
        <mxCell id="3dZJNFZHPKCO823eB3yJ-11" value="刀塔移動到&lt;div&gt;指定刀位&lt;/div&gt;" style="rounded=1;whiteSpace=wrap;html=1;fontSize=12;glass=0;strokeWidth=1;shadow=0;" parent="1" vertex="1">
          <mxGeometry x="310" y="590" width="100" height="40" as="geometry" />
        </mxCell>
        <mxCell id="VtdvaogcLJN-W2z9_aPD-3" style="edgeStyle=orthogonalEdgeStyle;rounded=0;orthogonalLoop=1;jettySize=auto;html=1;entryX=0.5;entryY=0;entryDx=0;entryDy=0;" parent="1" source="3dZJNFZHPKCO823eB3yJ-15" target="3dZJNFZHPKCO823eB3yJ-11" edge="1">
          <mxGeometry relative="1" as="geometry" />
        </mxCell>
        <mxCell id="VtdvaogcLJN-W2z9_aPD-4" value="YES" style="edgeLabel;html=1;align=center;verticalAlign=middle;resizable=0;points=[];" parent="VtdvaogcLJN-W2z9_aPD-3" vertex="1" connectable="0">
          <mxGeometry x="-0.3956" relative="1" as="geometry">
            <mxPoint x="19" as="offset" />
          </mxGeometry>
        </mxCell>
        <mxCell id="2hvMliUc916ICFkRDjvz-4" style="edgeStyle=orthogonalEdgeStyle;rounded=0;orthogonalLoop=1;jettySize=auto;html=1;entryX=0;entryY=0.5;entryDx=0;entryDy=0;" parent="1" source="3dZJNFZHPKCO823eB3yJ-15" target="2hvMliUc916ICFkRDjvz-3" edge="1">
          <mxGeometry relative="1" as="geometry" />
        </mxCell>
        <mxCell id="2hvMliUc916ICFkRDjvz-5" value="NO" style="edgeLabel;html=1;align=center;verticalAlign=middle;resizable=0;points=[];" parent="2hvMliUc916ICFkRDjvz-4" vertex="1" connectable="0">
          <mxGeometry x="-0.4402" y="2" relative="1" as="geometry">
            <mxPoint x="7" y="-10" as="offset" />
          </mxGeometry>
        </mxCell>
        <mxCell id="3dZJNFZHPKCO823eB3yJ-15" value="判斷手臂是否&lt;div&gt;安裝取刀夾治具&lt;/div&gt;" style="rhombus;whiteSpace=wrap;html=1;shadow=0;fontFamily=Helvetica;fontSize=12;align=center;strokeWidth=1;spacing=6;spacingTop=-4;fillColor=#dae8fc;strokeColor=#6c8ebf;" parent="1" vertex="1">
          <mxGeometry x="300" y="475" width="120" height="80" as="geometry" />
        </mxCell>
        <mxCell id="VtdvaogcLJN-W2z9_aPD-2" style="edgeStyle=orthogonalEdgeStyle;rounded=0;orthogonalLoop=1;jettySize=auto;html=1;entryX=0.5;entryY=0;entryDx=0;entryDy=0;" parent="1" source="3dZJNFZHPKCO823eB3yJ-17" target="xtFYvQuUhFj0W8ld0y1l-5" edge="1">
          <mxGeometry relative="1" as="geometry" />
        </mxCell>
        <mxCell id="3dZJNFZHPKCO823eB3yJ-17" value="命令安裝&lt;div&gt;夾治具&lt;/div&gt;" style="rounded=1;whiteSpace=wrap;html=1;fontSize=12;glass=0;strokeWidth=1;shadow=0;" parent="1" vertex="1">
          <mxGeometry x="503" y="590" width="70" height="40" as="geometry" />
        </mxCell>
        <mxCell id="xtFYvQuUhFj0W8ld0y1l-4" style="edgeStyle=orthogonalEdgeStyle;rounded=0;orthogonalLoop=1;jettySize=auto;html=1;entryX=0.5;entryY=0;entryDx=0;entryDy=0;" parent="1" source="3dZJNFZHPKCO823eB3yJ-22" target="3dZJNFZHPKCO823eB3yJ-40" edge="1">
          <mxGeometry relative="1" as="geometry" />
        </mxCell>
        <mxCell id="3dZJNFZHPKCO823eB3yJ-22" value="取刀完成移動至EDM待命位" style="rounded=1;whiteSpace=wrap;html=1;fontSize=12;glass=0;strokeWidth=1;shadow=0;" parent="1" vertex="1">
          <mxGeometry x="310" y="730" width="100" height="40" as="geometry" />
        </mxCell>
        <mxCell id="k0eogjgia3GWRonZtPCU-4" style="edgeStyle=orthogonalEdgeStyle;rounded=0;orthogonalLoop=1;jettySize=auto;html=1;entryX=0.5;entryY=0;entryDx=0;entryDy=0;" edge="1" parent="1" source="3dZJNFZHPKCO823eB3yJ-40" target="k0eogjgia3GWRonZtPCU-2">
          <mxGeometry relative="1" as="geometry" />
        </mxCell>
        <mxCell id="3dZJNFZHPKCO823eB3yJ-40" value="等待IPC提供EDM夾刀&lt;span style=&quot;background-color: initial;&quot;&gt;完成訊號&lt;/span&gt;" style="rounded=1;whiteSpace=wrap;html=1;fontSize=12;glass=0;strokeWidth=1;shadow=0;" parent="1" vertex="1">
          <mxGeometry x="310" y="804" width="100" height="40" as="geometry" />
        </mxCell>
        <mxCell id="3dZJNFZHPKCO823eB3yJ-74" style="edgeStyle=orthogonalEdgeStyle;rounded=0;orthogonalLoop=1;jettySize=auto;html=1;entryX=0.5;entryY=0;entryDx=0;entryDy=0;" parent="1" target="3dZJNFZHPKCO823eB3yJ-79" edge="1">
          <mxGeometry relative="1" as="geometry">
            <mxPoint x="360" y="320" as="sourcePoint" />
            <mxPoint x="360" y="340" as="targetPoint" />
          </mxGeometry>
        </mxCell>
        <mxCell id="3dZJNFZHPKCO823eB3yJ-75" style="edgeStyle=orthogonalEdgeStyle;rounded=0;orthogonalLoop=1;jettySize=auto;html=1;entryX=0;entryY=0.5;entryDx=0;entryDy=0;" parent="1" source="3dZJNFZHPKCO823eB3yJ-79" target="3dZJNFZHPKCO823eB3yJ-80" edge="1">
          <mxGeometry relative="1" as="geometry" />
        </mxCell>
        <mxCell id="3dZJNFZHPKCO823eB3yJ-76" value="NO" style="edgeLabel;html=1;align=center;verticalAlign=middle;resizable=0;points=[];" parent="3dZJNFZHPKCO823eB3yJ-75" vertex="1" connectable="0">
          <mxGeometry x="-0.359" y="2" relative="1" as="geometry">
            <mxPoint x="6" y="-8" as="offset" />
          </mxGeometry>
        </mxCell>
        <mxCell id="3dZJNFZHPKCO823eB3yJ-77" style="edgeStyle=orthogonalEdgeStyle;rounded=0;orthogonalLoop=1;jettySize=auto;html=1;entryX=0.5;entryY=0;entryDx=0;entryDy=0;" parent="1" source="3dZJNFZHPKCO823eB3yJ-79" target="3dZJNFZHPKCO823eB3yJ-15" edge="1">
          <mxGeometry relative="1" as="geometry" />
        </mxCell>
        <mxCell id="3dZJNFZHPKCO823eB3yJ-78" value="YES" style="edgeLabel;html=1;align=center;verticalAlign=middle;resizable=0;points=[];" parent="3dZJNFZHPKCO823eB3yJ-77" vertex="1" connectable="0">
          <mxGeometry x="0.3273" y="-1" relative="1" as="geometry">
            <mxPoint x="18" y="-3" as="offset" />
          </mxGeometry>
        </mxCell>
        <mxCell id="VtdvaogcLJN-W2z9_aPD-13" style="edgeStyle=orthogonalEdgeStyle;rounded=0;orthogonalLoop=1;jettySize=auto;html=1;entryX=0;entryY=0.5;entryDx=0;entryDy=0;" parent="3dZJNFZHPKCO823eB3yJ-77" source="VtdvaogcLJN-W2z9_aPD-16" target="VtdvaogcLJN-W2z9_aPD-17" edge="1">
          <mxGeometry relative="1" as="geometry" />
        </mxCell>
        <mxCell id="VtdvaogcLJN-W2z9_aPD-14" value="Err" style="edgeLabel;html=1;align=center;verticalAlign=middle;resizable=0;points=[];" parent="VtdvaogcLJN-W2z9_aPD-13" vertex="1" connectable="0">
          <mxGeometry x="-0.0693" y="3" relative="1" as="geometry">
            <mxPoint y="-8" as="offset" />
          </mxGeometry>
        </mxCell>
        <mxCell id="3dZJNFZHPKCO823eB3yJ-79" value="判斷刀位&lt;div&gt;狀態是否正確&lt;/div&gt;" style="rhombus;whiteSpace=wrap;html=1;shadow=0;fontFamily=Helvetica;fontSize=12;align=center;strokeWidth=1;spacing=6;spacingTop=-4;fillColor=#dae8fc;strokeColor=#6c8ebf;" parent="1" vertex="1">
          <mxGeometry x="300" y="360" width="120" height="80" as="geometry" />
        </mxCell>
        <mxCell id="3dZJNFZHPKCO823eB3yJ-80" value="報錯" style="rounded=1;whiteSpace=wrap;html=1;fontSize=12;glass=0;strokeWidth=1;shadow=0;fillColor=#f8cecc;strokeColor=#b85450;" parent="1" vertex="1">
          <mxGeometry x="502" y="380" width="70" height="40" as="geometry" />
        </mxCell>
        <mxCell id="3dZJNFZHPKCO823eB3yJ-94" value="倉儲取刀至EDM到位" style="text;strokeColor=none;fillColor=none;html=1;fontSize=24;fontStyle=1;verticalAlign=middle;align=center;" parent="1" vertex="1">
          <mxGeometry x="317" y="90" width="100" height="40" as="geometry" />
        </mxCell>
        <mxCell id="xtFYvQuUhFj0W8ld0y1l-3" style="edgeStyle=orthogonalEdgeStyle;rounded=0;orthogonalLoop=1;jettySize=auto;html=1;entryX=0.5;entryY=0;entryDx=0;entryDy=0;" parent="1" source="xtFYvQuUhFj0W8ld0y1l-1" target="3dZJNFZHPKCO823eB3yJ-22" edge="1">
          <mxGeometry relative="1" as="geometry" />
        </mxCell>
        <mxCell id="xtFYvQuUhFj0W8ld0y1l-1" value="手臂移動至&lt;div&gt;刀塔取刀&lt;/div&gt;" style="rounded=1;whiteSpace=wrap;html=1;fontSize=12;glass=0;strokeWidth=1;shadow=0;" parent="1" vertex="1">
          <mxGeometry x="310" y="660" width="100" height="40" as="geometry" />
        </mxCell>
        <mxCell id="xtFYvQuUhFj0W8ld0y1l-10" style="edgeStyle=orthogonalEdgeStyle;rounded=0;orthogonalLoop=1;jettySize=auto;html=1;entryX=0;entryY=0.5;entryDx=0;entryDy=0;" parent="1" source="xtFYvQuUhFj0W8ld0y1l-5" target="xtFYvQuUhFj0W8ld0y1l-9" edge="1">
          <mxGeometry relative="1" as="geometry" />
        </mxCell>
        <mxCell id="xtFYvQuUhFj0W8ld0y1l-11" value="Err" style="edgeLabel;html=1;align=center;verticalAlign=middle;resizable=0;points=[];" parent="xtFYvQuUhFj0W8ld0y1l-10" vertex="1" connectable="0">
          <mxGeometry x="-0.0693" y="3" relative="1" as="geometry">
            <mxPoint y="-8" as="offset" />
          </mxGeometry>
        </mxCell>
        <mxCell id="VtdvaogcLJN-W2z9_aPD-5" style="edgeStyle=orthogonalEdgeStyle;rounded=0;orthogonalLoop=1;jettySize=auto;html=1;entryX=1;entryY=0.5;entryDx=0;entryDy=0;" parent="1" source="xtFYvQuUhFj0W8ld0y1l-5" target="3dZJNFZHPKCO823eB3yJ-11" edge="1">
          <mxGeometry relative="1" as="geometry" />
        </mxCell>
        <mxCell id="xtFYvQuUhFj0W8ld0y1l-5" value="夾治具功能檢查" style="rounded=1;whiteSpace=wrap;html=1;fontSize=12;glass=0;strokeWidth=1;shadow=0;" parent="1" vertex="1">
          <mxGeometry x="487" y="690" width="100" height="40" as="geometry" />
        </mxCell>
        <mxCell id="xtFYvQuUhFj0W8ld0y1l-9" value="報錯" style="rounded=1;whiteSpace=wrap;html=1;fontSize=12;glass=0;strokeWidth=1;shadow=0;fillColor=#f8cecc;strokeColor=#b85450;" parent="1" vertex="1">
          <mxGeometry x="644" y="690" width="70" height="40" as="geometry" />
        </mxCell>
        <mxCell id="xtFYvQuUhFj0W8ld0y1l-45" style="edgeStyle=orthogonalEdgeStyle;rounded=0;orthogonalLoop=1;jettySize=auto;html=1;entryX=0.5;entryY=0;entryDx=0;entryDy=0;" parent="1" source="xtFYvQuUhFj0W8ld0y1l-46" target="xtFYvQuUhFj0W8ld0y1l-48" edge="1">
          <mxGeometry relative="1" as="geometry" />
        </mxCell>
        <mxCell id="xtFYvQuUhFj0W8ld0y1l-46" value="前往EDM&lt;div&gt;取刀到位&lt;/div&gt;" style="shape=process;whiteSpace=wrap;html=1;backgroundOutline=1;" parent="1" vertex="1">
          <mxGeometry x="1156" y="143" width="120" height="60" as="geometry" />
        </mxCell>
        <mxCell id="VtdvaogcLJN-W2z9_aPD-21" style="edgeStyle=orthogonalEdgeStyle;rounded=0;orthogonalLoop=1;jettySize=auto;html=1;entryX=0.5;entryY=0;entryDx=0;entryDy=0;" parent="1" source="xtFYvQuUhFj0W8ld0y1l-48" target="VtdvaogcLJN-W2z9_aPD-20" edge="1">
          <mxGeometry relative="1" as="geometry" />
        </mxCell>
        <mxCell id="xtFYvQuUhFj0W8ld0y1l-48" value="取刀命令&lt;div&gt;sand交握碼XX&lt;/div&gt;" style="rounded=1;whiteSpace=wrap;html=1;fontSize=12;glass=0;strokeWidth=1;shadow=0;" parent="1" vertex="1">
          <mxGeometry x="1166" y="223" width="100" height="40" as="geometry" />
        </mxCell>
        <mxCell id="k0eogjgia3GWRonZtPCU-5" style="edgeStyle=orthogonalEdgeStyle;rounded=0;orthogonalLoop=1;jettySize=auto;html=1;entryX=0.5;entryY=0;entryDx=0;entryDy=0;" edge="1" parent="1" source="xtFYvQuUhFj0W8ld0y1l-59" target="VtdvaogcLJN-W2z9_aPD-27">
          <mxGeometry relative="1" as="geometry" />
        </mxCell>
        <mxCell id="xtFYvQuUhFj0W8ld0y1l-59" value="等待IPC提供EDM鬆刀完成訊號" style="rounded=1;whiteSpace=wrap;html=1;fontSize=12;glass=0;strokeWidth=1;shadow=0;" parent="1" vertex="1">
          <mxGeometry x="1166" y="625" width="100" height="40" as="geometry" />
        </mxCell>
        <mxCell id="xtFYvQuUhFj0W8ld0y1l-67" value="前往EDM取刀" style="text;strokeColor=none;fillColor=none;html=1;fontSize=24;fontStyle=1;verticalAlign=middle;align=center;" parent="1" vertex="1">
          <mxGeometry x="1173" y="93" width="100" height="40" as="geometry" />
        </mxCell>
        <mxCell id="VtdvaogcLJN-W2z9_aPD-23" style="edgeStyle=orthogonalEdgeStyle;rounded=0;orthogonalLoop=1;jettySize=auto;html=1;" parent="1" source="xtFYvQuUhFj0W8ld0y1l-69" edge="1">
          <mxGeometry relative="1" as="geometry">
            <mxPoint x="1216" y="625" as="targetPoint" />
          </mxGeometry>
        </mxCell>
        <mxCell id="xtFYvQuUhFj0W8ld0y1l-69" value="手臂移動至&lt;div&gt;EDM並夾刀&lt;/div&gt;" style="rounded=1;whiteSpace=wrap;html=1;fontSize=12;glass=0;strokeWidth=1;shadow=0;" parent="1" vertex="1">
          <mxGeometry x="1166" y="550" width="100" height="40" as="geometry" />
        </mxCell>
        <mxCell id="xtFYvQuUhFj0W8ld0y1l-79" style="edgeStyle=orthogonalEdgeStyle;rounded=0;orthogonalLoop=1;jettySize=auto;html=1;entryX=0.5;entryY=0;entryDx=0;entryDy=0;" parent="1" source="xtFYvQuUhFj0W8ld0y1l-80" target="xtFYvQuUhFj0W8ld0y1l-81" edge="1">
          <mxGeometry relative="1" as="geometry" />
        </mxCell>
        <mxCell id="xtFYvQuUhFj0W8ld0y1l-80" value="返回刀庫放刀" style="rounded=1;whiteSpace=wrap;html=1;fontSize=12;glass=0;strokeWidth=1;shadow=0;" parent="1" vertex="1">
          <mxGeometry x="1166" y="806" width="100" height="40" as="geometry" />
        </mxCell>
        <mxCell id="xtFYvQuUhFj0W8ld0y1l-81" value="完成" style="rounded=1;whiteSpace=wrap;html=1;fontSize=12;glass=0;strokeWidth=1;shadow=0;" parent="1" vertex="1">
          <mxGeometry x="1166" y="880" width="100" height="40" as="geometry" />
        </mxCell>
        <mxCell id="VtdvaogcLJN-W2z9_aPD-24" style="edgeStyle=orthogonalEdgeStyle;rounded=0;orthogonalLoop=1;jettySize=auto;html=1;entryX=0.5;entryY=0;entryDx=0;entryDy=0;" parent="1" source="VtdvaogcLJN-W2z9_aPD-6" target="xtFYvQuUhFj0W8ld0y1l-69" edge="1">
          <mxGeometry relative="1" as="geometry" />
        </mxCell>
        <mxCell id="VtdvaogcLJN-W2z9_aPD-6" value="刀塔移動到&lt;div&gt;指定刀位&lt;/div&gt;" style="rounded=1;whiteSpace=wrap;html=1;fontSize=12;glass=0;strokeWidth=1;shadow=0;" parent="1" vertex="1">
          <mxGeometry x="1166" y="475" width="100" height="40" as="geometry" />
        </mxCell>
        <mxCell id="VtdvaogcLJN-W2z9_aPD-8" style="edgeStyle=orthogonalEdgeStyle;rounded=0;orthogonalLoop=1;jettySize=auto;html=1;entryX=0.5;entryY=0;entryDx=0;entryDy=0;" parent="1" source="VtdvaogcLJN-W2z9_aPD-10" target="VtdvaogcLJN-W2z9_aPD-6" edge="1">
          <mxGeometry relative="1" as="geometry" />
        </mxCell>
        <mxCell id="VtdvaogcLJN-W2z9_aPD-9" value="YES" style="edgeLabel;html=1;align=center;verticalAlign=middle;resizable=0;points=[];" parent="VtdvaogcLJN-W2z9_aPD-8" vertex="1" connectable="0">
          <mxGeometry x="-0.3956" relative="1" as="geometry">
            <mxPoint x="19" as="offset" />
          </mxGeometry>
        </mxCell>
        <mxCell id="2hvMliUc916ICFkRDjvz-8" style="edgeStyle=orthogonalEdgeStyle;rounded=0;orthogonalLoop=1;jettySize=auto;html=1;entryX=0;entryY=0.5;entryDx=0;entryDy=0;" parent="1" source="VtdvaogcLJN-W2z9_aPD-10" target="2hvMliUc916ICFkRDjvz-7" edge="1">
          <mxGeometry relative="1" as="geometry" />
        </mxCell>
        <mxCell id="VtdvaogcLJN-W2z9_aPD-10" value="判斷手臂是否&lt;div&gt;安裝取刀夾治具&lt;/div&gt;" style="rhombus;whiteSpace=wrap;html=1;shadow=0;fontFamily=Helvetica;fontSize=12;align=center;strokeWidth=1;spacing=6;spacingTop=-4;fillColor=#dae8fc;strokeColor=#6c8ebf;" parent="1" vertex="1">
          <mxGeometry x="1156" y="360" width="120" height="80" as="geometry" />
        </mxCell>
        <mxCell id="VtdvaogcLJN-W2z9_aPD-11" style="edgeStyle=orthogonalEdgeStyle;rounded=0;orthogonalLoop=1;jettySize=auto;html=1;entryX=0.5;entryY=0;entryDx=0;entryDy=0;" parent="1" source="VtdvaogcLJN-W2z9_aPD-12" target="VtdvaogcLJN-W2z9_aPD-16" edge="1">
          <mxGeometry relative="1" as="geometry" />
        </mxCell>
        <mxCell id="VtdvaogcLJN-W2z9_aPD-12" value="命令安裝&lt;div&gt;夾治具&lt;/div&gt;" style="rounded=1;whiteSpace=wrap;html=1;fontSize=12;glass=0;strokeWidth=1;shadow=0;" parent="1" vertex="1">
          <mxGeometry x="1361" y="475" width="70" height="40" as="geometry" />
        </mxCell>
        <mxCell id="VtdvaogcLJN-W2z9_aPD-15" style="edgeStyle=orthogonalEdgeStyle;rounded=0;orthogonalLoop=1;jettySize=auto;html=1;entryX=1;entryY=0.5;entryDx=0;entryDy=0;" parent="1" source="VtdvaogcLJN-W2z9_aPD-16" target="VtdvaogcLJN-W2z9_aPD-6" edge="1">
          <mxGeometry relative="1" as="geometry" />
        </mxCell>
        <mxCell id="VtdvaogcLJN-W2z9_aPD-16" value="夾治具功能檢查" style="rounded=1;whiteSpace=wrap;html=1;fontSize=12;glass=0;strokeWidth=1;shadow=0;" parent="1" vertex="1">
          <mxGeometry x="1346" y="573.5" width="100" height="40" as="geometry" />
        </mxCell>
        <mxCell id="VtdvaogcLJN-W2z9_aPD-17" value="報錯" style="rounded=1;whiteSpace=wrap;html=1;fontSize=12;glass=0;strokeWidth=1;shadow=0;fillColor=#f8cecc;strokeColor=#b85450;" parent="1" vertex="1">
          <mxGeometry x="1506" y="573.5" width="70" height="40" as="geometry" />
        </mxCell>
        <mxCell id="VtdvaogcLJN-W2z9_aPD-22" style="edgeStyle=orthogonalEdgeStyle;rounded=0;orthogonalLoop=1;jettySize=auto;html=1;entryX=0.5;entryY=0;entryDx=0;entryDy=0;" parent="1" source="VtdvaogcLJN-W2z9_aPD-20" target="VtdvaogcLJN-W2z9_aPD-10" edge="1">
          <mxGeometry relative="1" as="geometry" />
        </mxCell>
        <mxCell id="VtdvaogcLJN-W2z9_aPD-20" value="提供刀位(Layer,tool num)&lt;div&gt;&amp;amp; EDM編號&lt;br&gt;&lt;/div&gt;" style="rounded=1;whiteSpace=wrap;html=1;fontSize=12;glass=0;strokeWidth=1;shadow=0;" parent="1" vertex="1">
          <mxGeometry x="1166" y="290" width="100" height="40" as="geometry" />
        </mxCell>
        <mxCell id="VtdvaogcLJN-W2z9_aPD-25" style="edgeStyle=orthogonalEdgeStyle;rounded=0;orthogonalLoop=1;jettySize=auto;html=1;entryX=0;entryY=0.5;entryDx=0;entryDy=0;" parent="1" source="VtdvaogcLJN-W2z9_aPD-27" target="VtdvaogcLJN-W2z9_aPD-28" edge="1">
          <mxGeometry relative="1" as="geometry" />
        </mxCell>
        <mxCell id="VtdvaogcLJN-W2z9_aPD-26" value="NO" style="edgeLabel;html=1;align=center;verticalAlign=middle;resizable=0;points=[];" parent="VtdvaogcLJN-W2z9_aPD-25" vertex="1" connectable="0">
          <mxGeometry x="-0.359" y="2" relative="1" as="geometry">
            <mxPoint x="6" y="-8" as="offset" />
          </mxGeometry>
        </mxCell>
        <mxCell id="2hvMliUc916ICFkRDjvz-2" style="edgeStyle=orthogonalEdgeStyle;rounded=0;orthogonalLoop=1;jettySize=auto;html=1;entryX=0.5;entryY=0;entryDx=0;entryDy=0;" parent="1" source="VtdvaogcLJN-W2z9_aPD-27" target="xtFYvQuUhFj0W8ld0y1l-80" edge="1">
          <mxGeometry relative="1" as="geometry" />
        </mxCell>
        <mxCell id="VtdvaogcLJN-W2z9_aPD-27" value="判斷刀位&lt;div&gt;狀態是否正確&lt;/div&gt;" style="rhombus;whiteSpace=wrap;html=1;shadow=0;fontFamily=Helvetica;fontSize=12;align=center;strokeWidth=1;spacing=6;spacingTop=-4;fillColor=#dae8fc;strokeColor=#6c8ebf;" parent="1" vertex="1">
          <mxGeometry x="1156" y="697" width="120" height="80" as="geometry" />
        </mxCell>
        <mxCell id="VtdvaogcLJN-W2z9_aPD-28" value="報錯" style="rounded=1;whiteSpace=wrap;html=1;fontSize=12;glass=0;strokeWidth=1;shadow=0;fillColor=#f8cecc;strokeColor=#b85450;" parent="1" vertex="1">
          <mxGeometry x="1336" y="717" width="70" height="40" as="geometry" />
        </mxCell>
        <mxCell id="2hvMliUc916ICFkRDjvz-6" style="edgeStyle=orthogonalEdgeStyle;rounded=0;orthogonalLoop=1;jettySize=auto;html=1;entryX=0.5;entryY=0;entryDx=0;entryDy=0;" parent="1" source="2hvMliUc916ICFkRDjvz-3" target="3dZJNFZHPKCO823eB3yJ-17" edge="1">
          <mxGeometry relative="1" as="geometry" />
        </mxCell>
        <mxCell id="2hvMliUc916ICFkRDjvz-3" value="判斷安裝&lt;div&gt;深孔OR電擊&lt;/div&gt;" style="rhombus;whiteSpace=wrap;html=1;shadow=0;fontFamily=Helvetica;fontSize=12;align=center;strokeWidth=1;spacing=6;spacingTop=-4;fillColor=#dae8fc;strokeColor=#6c8ebf;" parent="1" vertex="1">
          <mxGeometry x="477" y="475" width="120" height="80" as="geometry" />
        </mxCell>
        <mxCell id="2hvMliUc916ICFkRDjvz-9" style="edgeStyle=orthogonalEdgeStyle;rounded=0;orthogonalLoop=1;jettySize=auto;html=1;entryX=0.5;entryY=0;entryDx=0;entryDy=0;" parent="1" source="2hvMliUc916ICFkRDjvz-7" target="VtdvaogcLJN-W2z9_aPD-12" edge="1">
          <mxGeometry relative="1" as="geometry" />
        </mxCell>
        <mxCell id="2hvMliUc916ICFkRDjvz-7" value="判斷安裝&lt;div&gt;深孔OR電擊&lt;/div&gt;" style="rhombus;whiteSpace=wrap;html=1;shadow=0;fontFamily=Helvetica;fontSize=12;align=center;strokeWidth=1;spacing=6;spacingTop=-4;fillColor=#dae8fc;strokeColor=#6c8ebf;" parent="1" vertex="1">
          <mxGeometry x="1336" y="360" width="120" height="80" as="geometry" />
        </mxCell>
        <mxCell id="k0eogjgia3GWRonZtPCU-1" style="edgeStyle=orthogonalEdgeStyle;rounded=0;orthogonalLoop=1;jettySize=auto;html=1;entryX=0.5;entryY=0;entryDx=0;entryDy=0;" edge="1" parent="1" source="k0eogjgia3GWRonZtPCU-2" target="k0eogjgia3GWRonZtPCU-3">
          <mxGeometry relative="1" as="geometry" />
        </mxCell>
        <mxCell id="k0eogjgia3GWRonZtPCU-2" value="鬆夾具並返回" style="rounded=1;whiteSpace=wrap;html=1;fontSize=12;glass=0;strokeWidth=1;shadow=0;" vertex="1" parent="1">
          <mxGeometry x="310" y="880" width="100" height="40" as="geometry" />
        </mxCell>
        <mxCell id="k0eogjgia3GWRonZtPCU-3" value="完成" style="rounded=1;whiteSpace=wrap;html=1;fontSize=12;glass=0;strokeWidth=1;shadow=0;" vertex="1" parent="1">
          <mxGeometry x="310" y="954" width="100" height="40" as="geometry" />
        </mxCell>
      </root>
    </mxGraphModel>
  </diagram>
  <diagram id="AAXuv2_Uj-zmqiC2UtLc" name="手動取放盤">
    <mxGraphModel dx="1333" dy="714" grid="1" gridSize="10" guides="1" tooltips="1" connect="1" arrows="1" fold="1" page="1" pageScale="1" pageWidth="827" pageHeight="1169" math="0" shadow="0">
      <root>
        <mxCell id="0" />
        <mxCell id="1" parent="0" />
        <mxCell id="S9UEBy47Wuua_ocPuTmj-21" value="IPC控制" style="text;html=1;align=center;verticalAlign=middle;whiteSpace=wrap;rounded=0;" parent="1" vertex="1">
          <mxGeometry x="1105" y="237.5" width="61" height="30" as="geometry" />
        </mxCell>
        <mxCell id="ZwGZ0CYFmrO_LQmYzlHX-2" style="edgeStyle=orthogonalEdgeStyle;rounded=0;orthogonalLoop=1;jettySize=auto;html=1;entryX=0.5;entryY=0;entryDx=0;entryDy=0;" parent="1" source="6quLJyn4kEWooawREjEc-1" target="ZwGZ0CYFmrO_LQmYzlHX-1" edge="1">
          <mxGeometry relative="1" as="geometry" />
        </mxCell>
        <mxCell id="6quLJyn4kEWooawREjEc-1" value="手動放盤" style="shape=process;whiteSpace=wrap;html=1;backgroundOutline=1;" parent="1" vertex="1">
          <mxGeometry x="1166" y="71" width="120" height="60" as="geometry" />
        </mxCell>
        <mxCell id="oAPYaon6NRYgAvQI3mMF-1" value="手動放盤交握流程" style="text;strokeColor=none;fillColor=none;html=1;fontSize=24;fontStyle=1;verticalAlign=middle;align=center;" parent="1" vertex="1">
          <mxGeometry x="1430" y="28" width="100" height="40" as="geometry" />
        </mxCell>
        <mxCell id="Xb2JFwLOA7_tnvBJelam-3" style="edgeStyle=orthogonalEdgeStyle;rounded=0;orthogonalLoop=1;jettySize=auto;html=1;entryX=0.5;entryY=0;entryDx=0;entryDy=0;" parent="1" source="ZwGZ0CYFmrO_LQmYzlHX-1" target="Xb2JFwLOA7_tnvBJelam-1" edge="1">
          <mxGeometry relative="1" as="geometry" />
        </mxCell>
        <mxCell id="ZwGZ0CYFmrO_LQmYzlHX-1" value="手動取盤命令&lt;div&gt;sand交握碼XX&lt;/div&gt;" style="rounded=1;whiteSpace=wrap;html=1;fontSize=12;glass=0;strokeWidth=1;shadow=0;" parent="1" vertex="1">
          <mxGeometry x="1176" y="162.5" width="100" height="40" as="geometry" />
        </mxCell>
        <mxCell id="Xb2JFwLOA7_tnvBJelam-4" style="edgeStyle=orthogonalEdgeStyle;rounded=0;orthogonalLoop=1;jettySize=auto;html=1;entryX=0.5;entryY=0;entryDx=0;entryDy=0;" parent="1" source="Xb2JFwLOA7_tnvBJelam-1" target="Xb2JFwLOA7_tnvBJelam-2" edge="1">
          <mxGeometry relative="1" as="geometry" />
        </mxCell>
        <mxCell id="Xb2JFwLOA7_tnvBJelam-1" value="抽屜安全門解鎖" style="rounded=1;whiteSpace=wrap;html=1;fontSize=12;glass=0;strokeWidth=1;shadow=0;" parent="1" vertex="1">
          <mxGeometry x="1176" y="232.5" width="100" height="40" as="geometry" />
        </mxCell>
        <mxCell id="Xb2JFwLOA7_tnvBJelam-6" style="edgeStyle=orthogonalEdgeStyle;rounded=0;orthogonalLoop=1;jettySize=auto;html=1;entryX=0.5;entryY=0;entryDx=0;entryDy=0;" parent="1" source="Xb2JFwLOA7_tnvBJelam-2" target="Xb2JFwLOA7_tnvBJelam-5" edge="1">
          <mxGeometry relative="1" as="geometry" />
        </mxCell>
        <mxCell id="Xb2JFwLOA7_tnvBJelam-2" value="人員手動解鎖&lt;div&gt;抽屜定位銷&lt;/div&gt;" style="rounded=1;whiteSpace=wrap;html=1;fontSize=12;glass=0;strokeWidth=1;shadow=0;" parent="1" vertex="1">
          <mxGeometry x="1176" y="302.5" width="100" height="40" as="geometry" />
        </mxCell>
        <mxCell id="Xb2JFwLOA7_tnvBJelam-10" style="edgeStyle=orthogonalEdgeStyle;rounded=0;orthogonalLoop=1;jettySize=auto;html=1;entryX=0.5;entryY=0;entryDx=0;entryDy=0;" parent="1" source="Xb2JFwLOA7_tnvBJelam-5" target="Xb2JFwLOA7_tnvBJelam-8" edge="1">
          <mxGeometry relative="1" as="geometry" />
        </mxCell>
        <mxCell id="Xb2JFwLOA7_tnvBJelam-5" value="放盤完成" style="rounded=1;whiteSpace=wrap;html=1;fontSize=12;glass=0;strokeWidth=1;shadow=0;" parent="1" vertex="1">
          <mxGeometry x="1176" y="370" width="100" height="40" as="geometry" />
        </mxCell>
        <mxCell id="Xb2JFwLOA7_tnvBJelam-7" value="防止滑動疑慮使用實體按鈕解鎖" style="text;html=1;align=center;verticalAlign=middle;whiteSpace=wrap;rounded=0;" parent="1" vertex="1">
          <mxGeometry x="1065" y="305.5" width="100" height="30" as="geometry" />
        </mxCell>
        <mxCell id="vYztoqwZe0HKSeeYgEoN-5" style="edgeStyle=orthogonalEdgeStyle;rounded=0;orthogonalLoop=1;jettySize=auto;html=1;entryX=0.5;entryY=0;entryDx=0;entryDy=0;" parent="1" source="Xb2JFwLOA7_tnvBJelam-8" target="vYztoqwZe0HKSeeYgEoN-3" edge="1">
          <mxGeometry relative="1" as="geometry" />
        </mxCell>
        <mxCell id="Xb2JFwLOA7_tnvBJelam-8" value="人員手動上鎖&lt;div&gt;抽屜定位銷&lt;/div&gt;" style="rounded=1;whiteSpace=wrap;html=1;fontSize=12;glass=0;strokeWidth=1;shadow=0;" parent="1" vertex="1">
          <mxGeometry x="1176" y="442.5" width="100" height="40" as="geometry" />
        </mxCell>
        <mxCell id="r2q9rSM5ieQvYbnTnEhu-2" style="edgeStyle=orthogonalEdgeStyle;rounded=0;orthogonalLoop=1;jettySize=auto;html=1;entryX=0.5;entryY=0;entryDx=0;entryDy=0;" parent="1" source="Xb2JFwLOA7_tnvBJelam-9" target="8HGUqQhFSimWGg-40xeT-12" edge="1">
          <mxGeometry relative="1" as="geometry" />
        </mxCell>
        <mxCell id="Xb2JFwLOA7_tnvBJelam-9" value="RFID讀取資料並傳送IPC" style="rounded=1;whiteSpace=wrap;html=1;fontSize=12;glass=0;strokeWidth=1;shadow=0;" parent="1" vertex="1">
          <mxGeometry x="1176" y="655.5" width="100" height="40" as="geometry" />
        </mxCell>
        <mxCell id="fYS-j-4qcfdxU1NBId6j-9" style="edgeStyle=orthogonalEdgeStyle;rounded=0;orthogonalLoop=1;jettySize=auto;html=1;entryX=0.5;entryY=0;entryDx=0;entryDy=0;" parent="1" source="sPdfXs7INFpD40uYt4UC-2" target="sPdfXs7INFpD40uYt4UC-4" edge="1">
          <mxGeometry relative="1" as="geometry" />
        </mxCell>
        <mxCell id="sPdfXs7INFpD40uYt4UC-2" value="開始放盤" style="rounded=1;whiteSpace=wrap;html=1;fontSize=12;glass=0;strokeWidth=1;shadow=0;" parent="1" vertex="1">
          <mxGeometry x="1176" y="903.5" width="100" height="40" as="geometry" />
        </mxCell>
        <mxCell id="sPdfXs7INFpD40uYt4UC-4" value="完成" style="rounded=1;whiteSpace=wrap;html=1;fontSize=12;glass=0;strokeWidth=1;shadow=0;" parent="1" vertex="1">
          <mxGeometry x="1176" y="973.5" width="100" height="40" as="geometry" />
        </mxCell>
        <mxCell id="fYS-j-4qcfdxU1NBId6j-3" style="edgeStyle=orthogonalEdgeStyle;rounded=0;orthogonalLoop=1;jettySize=auto;html=1;entryX=0.5;entryY=0;entryDx=0;entryDy=0;" parent="1" source="ZpHRR-lvCz-TMg10lOG5-5" target="Xb2JFwLOA7_tnvBJelam-9" edge="1">
          <mxGeometry relative="1" as="geometry" />
        </mxCell>
        <mxCell id="ZpHRR-lvCz-TMg10lOG5-5" value="等待放盤&lt;div&gt;完成訊號&lt;/div&gt;" style="rounded=1;whiteSpace=wrap;html=1;fontSize=12;glass=0;strokeWidth=1;shadow=0;" parent="1" vertex="1">
          <mxGeometry x="1176" y="590" width="100" height="40" as="geometry" />
        </mxCell>
        <mxCell id="r2q9rSM5ieQvYbnTnEhu-6" style="edgeStyle=orthogonalEdgeStyle;rounded=0;orthogonalLoop=1;jettySize=auto;html=1;entryX=0.5;entryY=0;entryDx=0;entryDy=0;" parent="1" source="fYS-j-4qcfdxU1NBId6j-5" target="sPdfXs7INFpD40uYt4UC-2" edge="1">
          <mxGeometry relative="1" as="geometry" />
        </mxCell>
        <mxCell id="fYS-j-4qcfdxU1NBId6j-5" value="提供儲位&lt;div&gt;(Area,Layer)&lt;/div&gt;" style="rounded=1;whiteSpace=wrap;html=1;fontSize=12;glass=0;strokeWidth=1;shadow=0;" parent="1" vertex="1">
          <mxGeometry x="1176" y="840" width="100" height="40" as="geometry" />
        </mxCell>
        <mxCell id="vYztoqwZe0HKSeeYgEoN-1" value="防止滑動疑慮使用實體按鈕解鎖" style="text;html=1;align=center;verticalAlign=middle;whiteSpace=wrap;rounded=0;" parent="1" vertex="1">
          <mxGeometry x="1066" y="445.5" width="100" height="30" as="geometry" />
        </mxCell>
        <mxCell id="vYztoqwZe0HKSeeYgEoN-7" style="edgeStyle=orthogonalEdgeStyle;rounded=0;orthogonalLoop=1;jettySize=auto;html=1;entryX=0.5;entryY=0;entryDx=0;entryDy=0;" parent="1" source="vYztoqwZe0HKSeeYgEoN-3" target="ZpHRR-lvCz-TMg10lOG5-5" edge="1">
          <mxGeometry relative="1" as="geometry" />
        </mxCell>
        <mxCell id="vYztoqwZe0HKSeeYgEoN-3" value="抽屜安全門上鎖" style="rounded=1;whiteSpace=wrap;html=1;fontSize=12;glass=0;strokeWidth=1;shadow=0;" parent="1" vertex="1">
          <mxGeometry x="1176" y="517.5" width="100" height="40" as="geometry" />
        </mxCell>
        <mxCell id="vYztoqwZe0HKSeeYgEoN-6" value="IPC控制" style="text;html=1;align=center;verticalAlign=middle;whiteSpace=wrap;rounded=0;" parent="1" vertex="1">
          <mxGeometry x="1105" y="520" width="61" height="30" as="geometry" />
        </mxCell>
        <mxCell id="1zJbr-KvilhK8UHru6S7-5" value="手動取盤交握流程" style="text;strokeColor=none;fillColor=none;html=1;fontSize=24;fontStyle=1;verticalAlign=middle;align=center;" parent="1" vertex="1">
          <mxGeometry x="512" y="28" width="100" height="40" as="geometry" />
        </mxCell>
        <mxCell id="8HGUqQhFSimWGg-40xeT-9" value="YES" style="edgeStyle=orthogonalEdgeStyle;rounded=0;orthogonalLoop=1;jettySize=auto;html=1;entryX=0;entryY=0.5;entryDx=0;entryDy=0;" parent="1" source="8HGUqQhFSimWGg-40xeT-12" target="8HGUqQhFSimWGg-40xeT-14" edge="1">
          <mxGeometry x="-0.3667" y="11" relative="1" as="geometry">
            <mxPoint as="offset" />
          </mxGeometry>
        </mxCell>
        <mxCell id="8HGUqQhFSimWGg-40xeT-10" style="edgeStyle=orthogonalEdgeStyle;rounded=0;orthogonalLoop=1;jettySize=auto;html=1;entryX=0.5;entryY=0;entryDx=0;entryDy=0;" parent="1" source="8HGUqQhFSimWGg-40xeT-12" edge="1">
          <mxGeometry relative="1" as="geometry">
            <mxPoint x="1226" y="840" as="targetPoint" />
          </mxGeometry>
        </mxCell>
        <mxCell id="8HGUqQhFSimWGg-40xeT-11" value="NO" style="edgeLabel;html=1;align=center;verticalAlign=middle;resizable=0;points=[];" parent="8HGUqQhFSimWGg-40xeT-10" vertex="1" connectable="0">
          <mxGeometry x="-0.4667" relative="1" as="geometry">
            <mxPoint x="10" y="3" as="offset" />
          </mxGeometry>
        </mxCell>
        <mxCell id="8HGUqQhFSimWGg-40xeT-12" value="判斷手臂是否&lt;div&gt;安裝取刀夾治具&lt;/div&gt;" style="rhombus;whiteSpace=wrap;html=1;shadow=0;fontFamily=Helvetica;fontSize=12;align=center;strokeWidth=1;spacing=6;spacingTop=-4;fillColor=#dae8fc;strokeColor=#6c8ebf;" parent="1" vertex="1">
          <mxGeometry x="1166" y="725" width="120" height="80" as="geometry" />
        </mxCell>
        <mxCell id="8HGUqQhFSimWGg-40xeT-13" style="edgeStyle=orthogonalEdgeStyle;rounded=0;orthogonalLoop=1;jettySize=auto;html=1;exitX=0.5;exitY=1;exitDx=0;exitDy=0;" parent="1" source="8HGUqQhFSimWGg-40xeT-14" edge="1">
          <mxGeometry relative="1" as="geometry">
            <mxPoint x="1256" y="820" as="targetPoint" />
            <Array as="points">
              <mxPoint x="1381" y="820" />
            </Array>
            <mxPoint x="1376" y="790" as="sourcePoint" />
          </mxGeometry>
        </mxCell>
        <mxCell id="8HGUqQhFSimWGg-40xeT-14" value="命令卸除&lt;div&gt;夾治具&lt;/div&gt;" style="rounded=1;whiteSpace=wrap;html=1;fontSize=12;glass=0;strokeWidth=1;shadow=0;" parent="1" vertex="1">
          <mxGeometry x="1346" y="745" width="70" height="40" as="geometry" />
        </mxCell>
        <mxCell id="r2q9rSM5ieQvYbnTnEhu-1" value="&lt;font style=&quot;font-size: 18px;&quot;&gt;更新履歷:&lt;/font&gt;&lt;div style=&quot;font-size: 18px;&quot;&gt;&lt;font style=&quot;font-size: 18px;&quot;&gt;20240621區分取盤和放盤流程&lt;/font&gt;&lt;/div&gt;&lt;div style=&quot;font-size: 18px;&quot;&gt;20240624刪除RFID讀取，新增取盤完成判斷註解&lt;/div&gt;" style="text;html=1;align=left;verticalAlign=top;whiteSpace=wrap;rounded=0;labelPosition=center;verticalLabelPosition=middle;" parent="1" vertex="1">
          <mxGeometry x="400" y="1040" width="420" height="99" as="geometry" />
        </mxCell>
        <mxCell id="r2q9rSM5ieQvYbnTnEhu-7" value="IPC控制" style="text;html=1;align=center;verticalAlign=middle;whiteSpace=wrap;rounded=0;" parent="1" vertex="1">
          <mxGeometry x="255" y="557.5" width="61" height="30" as="geometry" />
        </mxCell>
        <mxCell id="r2q9rSM5ieQvYbnTnEhu-8" style="edgeStyle=orthogonalEdgeStyle;rounded=0;orthogonalLoop=1;jettySize=auto;html=1;entryX=0.5;entryY=0;entryDx=0;entryDy=0;" parent="1" source="r2q9rSM5ieQvYbnTnEhu-9" target="r2q9rSM5ieQvYbnTnEhu-11" edge="1">
          <mxGeometry relative="1" as="geometry" />
        </mxCell>
        <mxCell id="r2q9rSM5ieQvYbnTnEhu-9" value="手動取盤" style="shape=process;whiteSpace=wrap;html=1;backgroundOutline=1;" parent="1" vertex="1">
          <mxGeometry x="306" y="71" width="120" height="60" as="geometry" />
        </mxCell>
        <mxCell id="r2q9rSM5ieQvYbnTnEhu-40" style="edgeStyle=orthogonalEdgeStyle;rounded=0;orthogonalLoop=1;jettySize=auto;html=1;entryX=0.5;entryY=0;entryDx=0;entryDy=0;" parent="1" source="r2q9rSM5ieQvYbnTnEhu-11" target="r2q9rSM5ieQvYbnTnEhu-37" edge="1">
          <mxGeometry relative="1" as="geometry" />
        </mxCell>
        <mxCell id="r2q9rSM5ieQvYbnTnEhu-11" value="手動取盤命令&lt;div&gt;sand交握碼XX&lt;/div&gt;" style="rounded=1;whiteSpace=wrap;html=1;fontSize=12;glass=0;strokeWidth=1;shadow=0;" parent="1" vertex="1">
          <mxGeometry x="316" y="162.5" width="100" height="40" as="geometry" />
        </mxCell>
        <mxCell id="r2q9rSM5ieQvYbnTnEhu-12" style="edgeStyle=orthogonalEdgeStyle;rounded=0;orthogonalLoop=1;jettySize=auto;html=1;entryX=0.5;entryY=0;entryDx=0;entryDy=0;" parent="1" source="r2q9rSM5ieQvYbnTnEhu-13" target="r2q9rSM5ieQvYbnTnEhu-15" edge="1">
          <mxGeometry relative="1" as="geometry" />
        </mxCell>
        <mxCell id="r2q9rSM5ieQvYbnTnEhu-13" value="抽屜安全門解鎖" style="rounded=1;whiteSpace=wrap;html=1;fontSize=12;glass=0;strokeWidth=1;shadow=0;" parent="1" vertex="1">
          <mxGeometry x="316" y="550" width="100" height="40" as="geometry" />
        </mxCell>
        <mxCell id="r2q9rSM5ieQvYbnTnEhu-14" style="edgeStyle=orthogonalEdgeStyle;rounded=0;orthogonalLoop=1;jettySize=auto;html=1;entryX=0.5;entryY=0;entryDx=0;entryDy=0;" parent="1" source="r2q9rSM5ieQvYbnTnEhu-15" target="r2q9rSM5ieQvYbnTnEhu-17" edge="1">
          <mxGeometry relative="1" as="geometry" />
        </mxCell>
        <mxCell id="r2q9rSM5ieQvYbnTnEhu-15" value="人員手動解鎖&lt;div&gt;抽屜定位銷&lt;/div&gt;" style="rounded=1;whiteSpace=wrap;html=1;fontSize=12;glass=0;strokeWidth=1;shadow=0;" parent="1" vertex="1">
          <mxGeometry x="316" y="620" width="100" height="40" as="geometry" />
        </mxCell>
        <mxCell id="r2q9rSM5ieQvYbnTnEhu-16" style="edgeStyle=orthogonalEdgeStyle;rounded=0;orthogonalLoop=1;jettySize=auto;html=1;entryX=0.5;entryY=0;entryDx=0;entryDy=0;" parent="1" source="r2q9rSM5ieQvYbnTnEhu-17" target="r2q9rSM5ieQvYbnTnEhu-20" edge="1">
          <mxGeometry relative="1" as="geometry" />
        </mxCell>
        <mxCell id="r2q9rSM5ieQvYbnTnEhu-17" value="取盤完成" style="rounded=1;whiteSpace=wrap;html=1;fontSize=12;glass=0;strokeWidth=1;shadow=0;" parent="1" vertex="1">
          <mxGeometry x="316" y="687.5" width="100" height="40" as="geometry" />
        </mxCell>
        <mxCell id="r2q9rSM5ieQvYbnTnEhu-18" value="防止滑動疑慮使用實體按鈕解鎖" style="text;html=1;align=center;verticalAlign=middle;whiteSpace=wrap;rounded=0;" parent="1" vertex="1">
          <mxGeometry x="215" y="625.5" width="100" height="30" as="geometry" />
        </mxCell>
        <mxCell id="r2q9rSM5ieQvYbnTnEhu-19" style="edgeStyle=orthogonalEdgeStyle;rounded=0;orthogonalLoop=1;jettySize=auto;html=1;entryX=0.5;entryY=0;entryDx=0;entryDy=0;" parent="1" source="r2q9rSM5ieQvYbnTnEhu-20" target="r2q9rSM5ieQvYbnTnEhu-32" edge="1">
          <mxGeometry relative="1" as="geometry" />
        </mxCell>
        <mxCell id="r2q9rSM5ieQvYbnTnEhu-20" value="人員手動上鎖&lt;div&gt;抽屜定位銷&lt;/div&gt;" style="rounded=1;whiteSpace=wrap;html=1;fontSize=12;glass=0;strokeWidth=1;shadow=0;" parent="1" vertex="1">
          <mxGeometry x="316" y="760" width="100" height="40" as="geometry" />
        </mxCell>
        <mxCell id="r2q9rSM5ieQvYbnTnEhu-23" style="edgeStyle=orthogonalEdgeStyle;rounded=0;orthogonalLoop=1;jettySize=auto;html=1;entryX=0.5;entryY=0;entryDx=0;entryDy=0;" parent="1" source="r2q9rSM5ieQvYbnTnEhu-24" target="r2q9rSM5ieQvYbnTnEhu-25" edge="1">
          <mxGeometry relative="1" as="geometry" />
        </mxCell>
        <mxCell id="r2q9rSM5ieQvYbnTnEhu-24" value="開始取盤" style="rounded=1;whiteSpace=wrap;html=1;fontSize=12;glass=0;strokeWidth=1;shadow=0;" parent="1" vertex="1">
          <mxGeometry x="316" y="411.75" width="100" height="40" as="geometry" />
        </mxCell>
        <mxCell id="r2q9rSM5ieQvYbnTnEhu-41" style="edgeStyle=orthogonalEdgeStyle;rounded=0;orthogonalLoop=1;jettySize=auto;html=1;entryX=0.5;entryY=0;entryDx=0;entryDy=0;" parent="1" source="r2q9rSM5ieQvYbnTnEhu-25" target="r2q9rSM5ieQvYbnTnEhu-13" edge="1">
          <mxGeometry relative="1" as="geometry" />
        </mxCell>
        <mxCell id="r2q9rSM5ieQvYbnTnEhu-25" value="取盤完成" style="rounded=1;whiteSpace=wrap;html=1;fontSize=12;glass=0;strokeWidth=1;shadow=0;" parent="1" vertex="1">
          <mxGeometry x="316" y="481.75" width="100" height="40" as="geometry" />
        </mxCell>
        <mxCell id="r2q9rSM5ieQvYbnTnEhu-26" style="edgeStyle=orthogonalEdgeStyle;rounded=0;orthogonalLoop=1;jettySize=auto;html=1;entryX=0.5;entryY=0;entryDx=0;entryDy=0;" parent="1" source="r2q9rSM5ieQvYbnTnEhu-27" target="r2q9rSM5ieQvYbnTnEhu-42" edge="1">
          <mxGeometry relative="1" as="geometry">
            <mxPoint x="366" y="973" as="targetPoint" />
          </mxGeometry>
        </mxCell>
        <mxCell id="r2q9rSM5ieQvYbnTnEhu-27" value="等待取盤&lt;div&gt;完成訊號&lt;/div&gt;" style="rounded=1;whiteSpace=wrap;html=1;fontSize=12;glass=0;strokeWidth=1;shadow=0;" parent="1" vertex="1">
          <mxGeometry x="316" y="907.5" width="100" height="40" as="geometry" />
        </mxCell>
        <mxCell id="r2q9rSM5ieQvYbnTnEhu-28" style="edgeStyle=orthogonalEdgeStyle;rounded=0;orthogonalLoop=1;jettySize=auto;html=1;entryX=0.5;entryY=0;entryDx=0;entryDy=0;" parent="1" source="r2q9rSM5ieQvYbnTnEhu-29" target="r2q9rSM5ieQvYbnTnEhu-24" edge="1">
          <mxGeometry relative="1" as="geometry" />
        </mxCell>
        <mxCell id="r2q9rSM5ieQvYbnTnEhu-29" value="提供儲位&lt;div&gt;(Area,Layer)&lt;/div&gt;" style="rounded=1;whiteSpace=wrap;html=1;fontSize=12;glass=0;strokeWidth=1;shadow=0;" parent="1" vertex="1">
          <mxGeometry x="316" y="348.25" width="100" height="40" as="geometry" />
        </mxCell>
        <mxCell id="r2q9rSM5ieQvYbnTnEhu-30" value="防止滑動疑慮使用實體按鈕解鎖" style="text;html=1;align=center;verticalAlign=middle;whiteSpace=wrap;rounded=0;" parent="1" vertex="1">
          <mxGeometry x="216" y="765.5" width="100" height="30" as="geometry" />
        </mxCell>
        <mxCell id="r2q9rSM5ieQvYbnTnEhu-31" style="edgeStyle=orthogonalEdgeStyle;rounded=0;orthogonalLoop=1;jettySize=auto;html=1;entryX=0.5;entryY=0;entryDx=0;entryDy=0;" parent="1" source="r2q9rSM5ieQvYbnTnEhu-32" target="r2q9rSM5ieQvYbnTnEhu-27" edge="1">
          <mxGeometry relative="1" as="geometry" />
        </mxCell>
        <mxCell id="r2q9rSM5ieQvYbnTnEhu-32" value="抽屜安全門上鎖" style="rounded=1;whiteSpace=wrap;html=1;fontSize=12;glass=0;strokeWidth=1;shadow=0;" parent="1" vertex="1">
          <mxGeometry x="316" y="835" width="100" height="40" as="geometry" />
        </mxCell>
        <mxCell id="r2q9rSM5ieQvYbnTnEhu-33" value="IPC控制" style="text;html=1;align=center;verticalAlign=middle;whiteSpace=wrap;rounded=0;" parent="1" vertex="1">
          <mxGeometry x="255" y="840" width="61" height="30" as="geometry" />
        </mxCell>
        <mxCell id="r2q9rSM5ieQvYbnTnEhu-34" value="YES" style="edgeStyle=orthogonalEdgeStyle;rounded=0;orthogonalLoop=1;jettySize=auto;html=1;entryX=0;entryY=0.5;entryDx=0;entryDy=0;" parent="1" source="r2q9rSM5ieQvYbnTnEhu-37" target="r2q9rSM5ieQvYbnTnEhu-39" edge="1">
          <mxGeometry x="-0.3667" y="11" relative="1" as="geometry">
            <mxPoint as="offset" />
          </mxGeometry>
        </mxCell>
        <mxCell id="r2q9rSM5ieQvYbnTnEhu-35" style="edgeStyle=orthogonalEdgeStyle;rounded=0;orthogonalLoop=1;jettySize=auto;html=1;entryX=0.5;entryY=0;entryDx=0;entryDy=0;" parent="1" source="r2q9rSM5ieQvYbnTnEhu-37" edge="1">
          <mxGeometry relative="1" as="geometry">
            <mxPoint x="366" y="348.25" as="targetPoint" />
          </mxGeometry>
        </mxCell>
        <mxCell id="r2q9rSM5ieQvYbnTnEhu-36" value="NO" style="edgeLabel;html=1;align=center;verticalAlign=middle;resizable=0;points=[];" parent="r2q9rSM5ieQvYbnTnEhu-35" vertex="1" connectable="0">
          <mxGeometry x="-0.4667" relative="1" as="geometry">
            <mxPoint x="10" y="3" as="offset" />
          </mxGeometry>
        </mxCell>
        <mxCell id="r2q9rSM5ieQvYbnTnEhu-37" value="判斷手臂是否&lt;div&gt;安裝取刀夾治具&lt;/div&gt;" style="rhombus;whiteSpace=wrap;html=1;shadow=0;fontFamily=Helvetica;fontSize=12;align=center;strokeWidth=1;spacing=6;spacingTop=-4;fillColor=#dae8fc;strokeColor=#6c8ebf;" parent="1" vertex="1">
          <mxGeometry x="306" y="233.25" width="120" height="80" as="geometry" />
        </mxCell>
        <mxCell id="r2q9rSM5ieQvYbnTnEhu-38" style="edgeStyle=orthogonalEdgeStyle;rounded=0;orthogonalLoop=1;jettySize=auto;html=1;exitX=0.5;exitY=1;exitDx=0;exitDy=0;" parent="1" source="r2q9rSM5ieQvYbnTnEhu-39" edge="1">
          <mxGeometry relative="1" as="geometry">
            <mxPoint x="396" y="328.25" as="targetPoint" />
            <Array as="points">
              <mxPoint x="521" y="328.25" />
            </Array>
            <mxPoint x="516" y="298.25" as="sourcePoint" />
          </mxGeometry>
        </mxCell>
        <mxCell id="r2q9rSM5ieQvYbnTnEhu-39" value="命令卸除&lt;div&gt;夾治具&lt;/div&gt;" style="rounded=1;whiteSpace=wrap;html=1;fontSize=12;glass=0;strokeWidth=1;shadow=0;" parent="1" vertex="1">
          <mxGeometry x="486" y="253.25" width="70" height="40" as="geometry" />
        </mxCell>
        <mxCell id="r2q9rSM5ieQvYbnTnEhu-42" value="完成" style="rounded=1;whiteSpace=wrap;html=1;fontSize=12;glass=0;strokeWidth=1;shadow=0;" parent="1" vertex="1">
          <mxGeometry x="316" y="980" width="100" height="40" as="geometry" />
        </mxCell>
        <mxCell id="WAbSqHhSFf2n_raEp3Rj-1" value="IPC判斷&lt;div&gt;iSN_StorageCell[3,1] == true&amp;nbsp;&amp;nbsp;&lt;div&gt;and&amp;nbsp;&lt;div&gt;Plc_Device_Status == Ready&lt;/div&gt;&lt;div&gt;為完成取盤&lt;/div&gt;&lt;div&gt;&lt;br&gt;&lt;div&gt;&lt;br&gt;&lt;/div&gt;&lt;/div&gt;&lt;/div&gt;&lt;/div&gt;" style="text;html=1;align=center;verticalAlign=middle;whiteSpace=wrap;rounded=0;" vertex="1" parent="1">
          <mxGeometry x="414" y="490" width="186" height="43" as="geometry" />
        </mxCell>
      </root>
    </mxGraphModel>
  </diagram>
  <diagram id="NcCJydEbT0ORO446ZNhL" name="手動上下刀">
    <mxGraphModel dx="-131" dy="816" grid="1" gridSize="10" guides="1" tooltips="1" connect="1" arrows="1" fold="1" page="1" pageScale="1" pageWidth="827" pageHeight="1169" math="0" shadow="0">
      <root>
        <mxCell id="0" />
        <mxCell id="1" parent="0" />
        <mxCell id="5sh2vTJ78x2PJTIziTaa-1" value="自動OR手動?" style="text;html=1;align=center;verticalAlign=middle;whiteSpace=wrap;rounded=0;" vertex="1" parent="1">
          <mxGeometry x="1938" y="316.5" width="100" height="30" as="geometry" />
        </mxCell>
        <mxCell id="5sh2vTJ78x2PJTIziTaa-2" style="edgeStyle=orthogonalEdgeStyle;rounded=0;orthogonalLoop=1;jettySize=auto;html=1;entryX=0.5;entryY=0;entryDx=0;entryDy=0;" edge="1" parent="1" source="5sh2vTJ78x2PJTIziTaa-3" target="5sh2vTJ78x2PJTIziTaa-6">
          <mxGeometry relative="1" as="geometry" />
        </mxCell>
        <mxCell id="5sh2vTJ78x2PJTIziTaa-3" value="手動取放刀" style="shape=process;whiteSpace=wrap;html=1;backgroundOutline=1;" vertex="1" parent="1">
          <mxGeometry x="1928" y="150" width="120" height="60" as="geometry" />
        </mxCell>
        <mxCell id="5sh2vTJ78x2PJTIziTaa-4" value="手動上下刀交握流程" style="text;strokeColor=none;fillColor=none;html=1;fontSize=24;fontStyle=1;verticalAlign=middle;align=center;" vertex="1" parent="1">
          <mxGeometry x="2280" y="28" width="100" height="40" as="geometry" />
        </mxCell>
        <mxCell id="5sh2vTJ78x2PJTIziTaa-5" style="edgeStyle=orthogonalEdgeStyle;rounded=0;orthogonalLoop=1;jettySize=auto;html=1;entryX=0.5;entryY=0;entryDx=0;entryDy=0;" edge="1" parent="1" source="5sh2vTJ78x2PJTIziTaa-6" target="5sh2vTJ78x2PJTIziTaa-8">
          <mxGeometry relative="1" as="geometry" />
        </mxCell>
        <mxCell id="5sh2vTJ78x2PJTIziTaa-6" value="手動上下刀命令&lt;div&gt;sand交握碼XX&lt;/div&gt;" style="rounded=1;whiteSpace=wrap;html=1;fontSize=12;glass=0;strokeWidth=1;shadow=0;" vertex="1" parent="1">
          <mxGeometry x="1938" y="241.5" width="100" height="40" as="geometry" />
        </mxCell>
        <mxCell id="5sh2vTJ78x2PJTIziTaa-7" style="edgeStyle=orthogonalEdgeStyle;rounded=0;orthogonalLoop=1;jettySize=auto;html=1;entryX=0.5;entryY=0;entryDx=0;entryDy=0;" edge="1" parent="1" source="5sh2vTJ78x2PJTIziTaa-8" target="5sh2vTJ78x2PJTIziTaa-10">
          <mxGeometry relative="1" as="geometry" />
        </mxCell>
        <mxCell id="5sh2vTJ78x2PJTIziTaa-8" value="安全門解鎖" style="rounded=1;whiteSpace=wrap;html=1;fontSize=12;glass=0;strokeWidth=1;shadow=0;" vertex="1" parent="1">
          <mxGeometry x="1938" y="311.5" width="100" height="40" as="geometry" />
        </mxCell>
        <mxCell id="5sh2vTJ78x2PJTIziTaa-9" style="edgeStyle=orthogonalEdgeStyle;rounded=0;orthogonalLoop=1;jettySize=auto;html=1;entryX=0.5;entryY=0;entryDx=0;entryDy=0;" edge="1" parent="1" source="5sh2vTJ78x2PJTIziTaa-10" target="5sh2vTJ78x2PJTIziTaa-12">
          <mxGeometry relative="1" as="geometry" />
        </mxCell>
        <mxCell id="5sh2vTJ78x2PJTIziTaa-10" value="人員手動&lt;span style=&quot;background-color: initial;&quot;&gt;取放刀&lt;/span&gt;" style="rounded=1;whiteSpace=wrap;html=1;fontSize=12;glass=0;strokeWidth=1;shadow=0;" vertex="1" parent="1">
          <mxGeometry x="1938" y="381.5" width="100" height="40" as="geometry" />
        </mxCell>
        <mxCell id="5sh2vTJ78x2PJTIziTaa-11" style="edgeStyle=orthogonalEdgeStyle;rounded=0;orthogonalLoop=1;jettySize=auto;html=1;entryX=0.5;entryY=0;entryDx=0;entryDy=0;" edge="1" parent="1" source="5sh2vTJ78x2PJTIziTaa-12" target="5sh2vTJ78x2PJTIziTaa-14">
          <mxGeometry relative="1" as="geometry" />
        </mxCell>
        <mxCell id="5sh2vTJ78x2PJTIziTaa-12" value="安全門上鎖" style="rounded=1;whiteSpace=wrap;html=1;fontSize=12;glass=0;strokeWidth=1;shadow=0;" vertex="1" parent="1">
          <mxGeometry x="1938" y="449" width="100" height="40" as="geometry" />
        </mxCell>
        <mxCell id="5sh2vTJ78x2PJTIziTaa-13" style="edgeStyle=orthogonalEdgeStyle;rounded=0;orthogonalLoop=1;jettySize=auto;html=1;entryX=0.5;entryY=0;entryDx=0;entryDy=0;" edge="1" parent="1" source="5sh2vTJ78x2PJTIziTaa-14" target="5sh2vTJ78x2PJTIziTaa-25">
          <mxGeometry relative="1" as="geometry" />
        </mxCell>
        <mxCell id="5sh2vTJ78x2PJTIziTaa-14" value="接收IPC完成訊號" style="rounded=1;whiteSpace=wrap;html=1;fontSize=12;glass=0;strokeWidth=1;shadow=0;" vertex="1" parent="1">
          <mxGeometry x="1938" y="516.5" width="100" height="40" as="geometry" />
        </mxCell>
        <mxCell id="5sh2vTJ78x2PJTIziTaa-15" style="edgeStyle=orthogonalEdgeStyle;rounded=0;orthogonalLoop=1;jettySize=auto;html=1;entryX=0.5;entryY=0;entryDx=0;entryDy=0;" edge="1" parent="1" source="5sh2vTJ78x2PJTIziTaa-16" target="5sh2vTJ78x2PJTIziTaa-18">
          <mxGeometry relative="1" as="geometry" />
        </mxCell>
        <mxCell id="5sh2vTJ78x2PJTIziTaa-16" value="巡刀檢查&lt;div&gt;(RFID讀取)&lt;/div&gt;" style="rounded=1;whiteSpace=wrap;html=1;fontSize=12;glass=0;strokeWidth=1;shadow=0;" vertex="1" parent="1">
          <mxGeometry x="2158" y="311.5" width="100" height="40" as="geometry" />
        </mxCell>
        <mxCell id="5sh2vTJ78x2PJTIziTaa-17" style="edgeStyle=orthogonalEdgeStyle;rounded=0;orthogonalLoop=1;jettySize=auto;html=1;entryX=0.5;entryY=0;entryDx=0;entryDy=0;" edge="1" parent="1" source="5sh2vTJ78x2PJTIziTaa-18" target="5sh2vTJ78x2PJTIziTaa-19">
          <mxGeometry relative="1" as="geometry" />
        </mxCell>
        <mxCell id="5sh2vTJ78x2PJTIziTaa-18" value="傳送刀位&lt;div&gt;&lt;span style=&quot;background-color: initial;&quot;&gt;資訊至上位&lt;/span&gt;&lt;/div&gt;" style="rounded=1;whiteSpace=wrap;html=1;fontSize=12;glass=0;strokeWidth=1;shadow=0;" vertex="1" parent="1">
          <mxGeometry x="2158" y="381.5" width="100" height="40" as="geometry" />
        </mxCell>
        <mxCell id="5sh2vTJ78x2PJTIziTaa-19" value="完成" style="rounded=1;whiteSpace=wrap;html=1;fontSize=12;glass=0;strokeWidth=1;shadow=0;" vertex="1" parent="1">
          <mxGeometry x="2158" y="451.5" width="100" height="40" as="geometry" />
        </mxCell>
        <mxCell id="5sh2vTJ78x2PJTIziTaa-20" value="手動開關控制" style="text;html=1;align=center;verticalAlign=middle;whiteSpace=wrap;rounded=0;" vertex="1" parent="1">
          <mxGeometry x="1838" y="316.5" width="100" height="30" as="geometry" />
        </mxCell>
        <mxCell id="5sh2vTJ78x2PJTIziTaa-21" value="開啟手動正反轉功能" style="text;html=1;align=center;verticalAlign=middle;whiteSpace=wrap;rounded=0;" vertex="1" parent="1">
          <mxGeometry x="1820" y="386.5" width="118" height="30" as="geometry" />
        </mxCell>
        <mxCell id="5sh2vTJ78x2PJTIziTaa-22" value="手動開關控制" style="text;html=1;align=center;verticalAlign=middle;whiteSpace=wrap;rounded=0;" vertex="1" parent="1">
          <mxGeometry x="1838" y="454" width="100" height="30" as="geometry" />
        </mxCell>
        <mxCell id="5sh2vTJ78x2PJTIziTaa-23" value="&lt;font style=&quot;font-size: 18px;&quot;&gt;更新履歷:&lt;/font&gt;&lt;div style=&quot;font-size: 18px;&quot;&gt;&lt;font style=&quot;font-size: 18px;&quot;&gt;20240620更改安全門解鎖流程為手動開關控制&lt;/font&gt;&lt;/div&gt;" style="text;html=1;align=left;verticalAlign=top;whiteSpace=wrap;rounded=0;labelPosition=center;verticalLabelPosition=middle;" vertex="1" parent="1">
          <mxGeometry x="1670" y="960" width="420" height="192" as="geometry" />
        </mxCell>
        <mxCell id="5sh2vTJ78x2PJTIziTaa-24" style="edgeStyle=orthogonalEdgeStyle;rounded=0;orthogonalLoop=1;jettySize=auto;html=1;entryX=0;entryY=0.5;entryDx=0;entryDy=0;" edge="1" parent="1" source="5sh2vTJ78x2PJTIziTaa-25" target="5sh2vTJ78x2PJTIziTaa-27">
          <mxGeometry relative="1" as="geometry" />
        </mxCell>
        <mxCell id="5sh2vTJ78x2PJTIziTaa-25" value="完成" style="rounded=1;whiteSpace=wrap;html=1;fontSize=12;glass=0;strokeWidth=1;shadow=0;" vertex="1" parent="1">
          <mxGeometry x="1938" y="582" width="100" height="40" as="geometry" />
        </mxCell>
        <mxCell id="5sh2vTJ78x2PJTIziTaa-26" style="edgeStyle=orthogonalEdgeStyle;rounded=0;orthogonalLoop=1;jettySize=auto;html=1;entryX=0.5;entryY=0;entryDx=0;entryDy=0;" edge="1" parent="1" source="5sh2vTJ78x2PJTIziTaa-27" target="5sh2vTJ78x2PJTIziTaa-16">
          <mxGeometry relative="1" as="geometry" />
        </mxCell>
        <mxCell id="5sh2vTJ78x2PJTIziTaa-27" value="巡刀檢查命令&lt;div&gt;sand交握碼XX&lt;/div&gt;" style="rounded=1;whiteSpace=wrap;html=1;fontSize=12;glass=0;strokeWidth=1;shadow=0;" vertex="1" parent="1">
          <mxGeometry x="2158" y="241.5" width="100" height="40" as="geometry" />
        </mxCell>
      </root>
    </mxGraphModel>
  </diagram>
</mxfile>
